<svg width="1081" height="536" viewBox="0 0 1081 536" fill="none" xmlns="http://www.w3.org/2000/svg">
<path fill-rule="evenodd" clip-rule="evenodd" d="M95.3321 14.8319C95.5615 15.2763 95.5616 15.2762 95.5623 15.2758L95.5665 15.2737L95.5854 15.2641C95.6026 15.2554 95.6289 15.2421 95.6645 15.2245C95.7357 15.1892 95.8436 15.1364 95.9886 15.0675C96.2786 14.9297 96.7167 14.7274 97.304 14.472C98.4787 13.9611 100.25 13.238 102.63 12.3934C107.388 10.7043 114.575 8.52965 124.273 6.59773C143.667 2.734 173.105 -0.159629 213.232 3.74626C293.486 11.5581 416.514 46.5699 587.472 155.441C758.531 264.375 881.707 299.456 962.153 307.287C1002.38 311.202 1031.91 308.304 1051.4 304.421C1061.15 302.479 1068.38 300.291 1073.19 298.587C1075.59 297.734 1077.38 297.003 1078.58 296.483C1078.9 296.34 1079.19 296.214 1079.42 296.105C1079.62 296.015 1079.79 295.938 1079.92 295.873C1080.07 295.802 1080.19 295.747 1080.26 295.709C1080.3 295.69 1080.33 295.676 1080.35 295.666L1080.37 295.654L1080.38 295.651C1080.38 295.651 1080.38 295.65 1080.28 295.465C1080.25 295.402 1080.21 295.318 1080.15 295.206L1080.01 294.939C1079.92 294.761 1079.92 294.761 1079.92 294.762L1079.92 294.764L1079.9 294.774C1079.88 294.782 1079.85 294.795 1079.82 294.813C1079.75 294.848 1079.64 294.901 1079.49 294.97C1079.2 295.108 1078.76 295.31 1078.18 295.566C1077 296.076 1075.23 296.8 1072.85 297.644C1068.09 299.333 1060.91 301.508 1051.21 303.44C1031.81 307.304 1002.38 310.197 962.25 306.291C881.996 298.48 758.968 263.468 588.009 154.597C416.951 45.663 293.774 10.5814 213.329 2.75097C173.106 -1.16426 143.569 1.73376 124.077 5.617C114.331 7.55855 107.097 9.74618 102.295 11.451C99.8938 12.3034 98.1006 13.0351 96.9052 13.5549C96.3076 13.8148 95.8594 14.0218 95.5594 14.1644C95.4094 14.2356 95.2964 14.2908 95.2204 14.3285C95.1824 14.3474 95.1536 14.3618 95.134 14.3717L95.1115 14.3832L95.1055 14.3863C95.1039 14.3871 95.1028 14.3876 95.3321 14.8319ZM93.3145 22.3186C93.3138 22.319 93.3137 22.319 93.0844 21.8747C92.8551 21.4304 92.8561 21.4299 92.8577 21.4291L92.8638 21.426L92.8862 21.4145C92.9058 21.4046 92.9346 21.3902 92.9726 21.3713C93.0487 21.3336 93.1616 21.2784 93.3116 21.2071C93.6116 21.0645 94.0598 20.8576 94.6575 20.5977C95.8528 20.0779 97.6461 19.3462 100.047 18.4938C104.85 16.789 112.084 14.6013 121.829 12.6598C141.322 8.77655 170.858 5.87853 211.081 9.79374C291.527 17.6242 414.703 52.7058 585.762 161.64C756.72 270.51 879.748 305.522 960.002 313.334C1000.13 317.24 1029.57 314.346 1048.96 310.483C1058.66 308.551 1065.85 306.376 1070.6 304.687C1072.98 303.842 1074.76 303.119 1075.93 302.608C1076.52 302.353 1076.96 302.151 1077.25 302.013C1077.39 301.944 1077.5 301.891 1077.57 301.856C1077.6 301.838 1077.63 301.825 1077.65 301.816L1077.67 301.807L1077.67 301.805C1077.67 301.804 1077.67 301.804 1077.76 301.982L1077.9 302.248C1078.03 302.498 1078.09 302.608 1078.11 302.656C1078.13 302.693 1078.13 302.694 1078.13 302.694L1078.12 302.697L1078.1 302.709C1078.08 302.719 1078.05 302.733 1078.01 302.752C1077.94 302.79 1077.82 302.845 1077.67 302.916C1077.53 302.986 1077.35 303.071 1077.13 303.17C1076.9 303.274 1076.63 303.393 1076.33 303.526C1075.13 304.045 1073.34 304.777 1070.94 305.629C1066.14 307.334 1058.9 309.522 1049.16 311.463C1029.66 315.347 1000.13 318.245 959.905 314.329C879.459 306.499 756.283 271.417 585.225 162.483C414.266 53.6127 291.238 18.6009 210.984 10.789C170.857 6.88314 141.419 9.77679 122.025 13.6405C112.327 15.5724 105.14 17.7471 100.382 19.4362C98.0027 20.2807 96.2309 21.0039 95.0562 21.5147C94.4689 21.7701 94.0309 21.9725 93.7409 22.1103C93.5959 22.1792 93.4879 22.232 93.4167 22.2673L93.3884 22.2814L93.3376 22.3069L93.3188 22.3164L93.3145 22.3186ZM90.8364 28.9174C91.0657 29.3617 91.0659 29.3616 91.0666 29.3613L91.0708 29.3591L91.0897 29.3495L91.1381 29.3252L91.1688 29.3099C91.2399 29.2747 91.3479 29.2219 91.4929 29.1529C91.7829 29.0151 92.221 28.8128 92.8083 28.5574C93.9829 28.0466 95.7548 27.3234 98.1339 26.4788C102.892 24.7897 110.079 22.6151 119.777 20.6831C139.171 16.8194 168.609 13.9258 208.736 17.8317C288.99 25.6435 412.018 60.6553 582.977 169.526C754.035 278.46 877.212 313.542 957.657 321.372C997.88 325.287 1027.42 322.389 1046.91 318.506C1056.65 316.564 1063.89 314.377 1068.69 312.672C1071.09 311.82 1072.89 311.088 1074.08 310.568C1074.68 310.308 1075.13 310.101 1075.43 309.959C1075.58 309.887 1075.69 309.832 1075.77 309.794C1075.8 309.776 1075.83 309.761 1075.85 309.751L1075.87 309.74L1075.88 309.737C1075.88 309.737 1075.88 309.736 1075.88 309.732C1075.88 309.724 1075.87 309.705 1075.84 309.653C1075.81 309.591 1075.75 309.482 1075.65 309.291L1075.52 309.025C1075.42 308.847 1075.42 308.847 1075.42 308.847L1075.42 308.849L1075.4 308.859L1075.34 308.887L1075.32 308.898C1075.25 308.934 1075.14 308.987 1075 309.055C1074.71 309.193 1074.27 309.396 1073.68 309.651C1072.51 310.162 1070.74 310.885 1068.36 311.73C1063.6 313.419 1056.41 315.593 1046.71 317.525C1027.32 321.389 997.881 324.283 957.754 320.377C877.5 312.565 754.472 277.553 583.514 168.682C412.455 59.7484 289.279 24.6668 208.833 16.8364C168.61 12.9212 139.074 15.8192 119.581 19.7024C109.836 21.644 102.602 23.8316 97.7993 25.5364C95.3981 26.3888 93.6049 27.1205 92.4095 27.6403C91.8118 27.9002 91.3636 28.1072 91.0636 28.2498C90.9137 28.3211 90.8007 28.3763 90.7247 28.4139C90.6867 28.4328 90.6579 28.4473 90.6383 28.4572L90.6158 28.4686L90.6097 28.4717C90.6081 28.4725 90.6071 28.473 90.8364 28.9174ZM88.8188 36.404C88.8181 36.4044 88.818 36.4045 88.5887 35.9601C88.3593 35.5158 88.3604 35.5153 88.362 35.5145L88.368 35.5114L88.3905 35.4999L88.4228 35.4837L88.4769 35.4567C88.5529 35.419 88.6659 35.3638 88.8159 35.2926C89.1159 35.15 89.5641 34.943 90.1617 34.6831C91.3571 34.1633 93.1503 33.4316 95.5515 32.5792C100.354 30.8744 107.588 28.6867 117.334 26.7452C136.826 22.862 166.362 19.9639 206.585 23.8792C287.031 31.7096 410.208 66.7912 581.266 175.725C752.225 284.596 875.252 319.608 955.506 327.42C995.634 331.325 1025.07 328.432 1044.47 324.568C1054.16 322.636 1061.35 320.461 1066.11 318.772C1068.49 317.928 1070.26 317.205 1071.43 316.694C1071.62 316.615 1071.78 316.541 1071.94 316.472C1072.09 316.403 1072.23 316.339 1072.36 316.281C1072.51 316.212 1072.64 316.15 1072.75 316.098L1072.82 316.065L1072.93 316.014C1072.99 315.984 1073.04 315.96 1073.07 315.941C1073.11 315.924 1073.14 315.91 1073.15 315.902L1073.17 315.892L1073.18 315.89C1073.18 315.89 1073.18 315.89 1073.27 316.068L1073.41 316.334C1073.49 316.494 1073.54 316.596 1073.57 316.662C1073.63 316.779 1073.63 316.779 1073.63 316.78L1073.63 316.783L1073.6 316.794C1073.58 316.804 1073.56 316.818 1073.52 316.837C1073.44 316.875 1073.33 316.93 1073.18 317.001C1072.88 317.144 1072.43 317.351 1071.83 317.611C1070.64 318.131 1068.84 318.862 1066.44 319.715C1061.64 321.42 1054.41 323.607 1044.66 325.549C1025.17 329.432 995.633 332.33 955.41 328.415C874.964 320.584 751.787 285.503 580.729 176.569C409.77 67.6981 286.742 32.6863 206.488 24.8745C166.361 20.9686 136.923 23.8622 117.529 27.7259C107.832 29.6578 100.644 31.8325 95.8861 33.5216C93.507 34.3662 91.7352 35.0893 90.5605 35.6002C89.9732 35.8556 89.5352 36.0579 89.2451 36.1957C89.1001 36.2646 88.9922 36.3174 88.921 36.3527C88.8854 36.3703 88.8591 36.3836 88.8419 36.3923L88.823 36.4019L88.8188 36.404ZM86.3409 43.0029C86.5702 43.4473 86.5703 43.4472 86.571 43.4468L86.5753 43.4446L86.5941 43.4351C86.6113 43.4264 86.6377 43.4131 86.6732 43.3955C86.7444 43.3602 86.8524 43.3074 86.9974 43.2385C87.2874 43.1007 87.7254 42.8984 88.3127 42.6429C89.4874 42.1321 91.2592 41.4089 93.6383 40.5644C98.3964 38.8753 105.584 36.7006 115.281 34.7687C134.676 30.905 164.113 28.0114 204.24 31.9172C284.495 39.7291 407.522 74.7409 578.481 183.612C749.539 292.546 872.716 327.627 953.162 335.458C993.385 339.373 1022.92 336.475 1042.41 332.592C1052.16 330.65 1059.39 328.462 1064.2 326.758C1066.6 325.905 1068.39 325.173 1069.59 324.654C1069.92 324.508 1070.21 324.379 1070.45 324.269C1070.64 324.182 1070.8 324.107 1070.93 324.044C1071.08 323.973 1071.19 323.918 1071.27 323.88C1071.31 323.861 1071.34 323.847 1071.36 323.837L1071.38 323.825L1071.38 323.822C1071.39 323.821 1071.39 323.821 1071.16 323.377L1071.02 323.11C1070.93 322.932 1070.93 322.932 1070.93 322.933L1070.92 322.935L1070.91 322.944C1070.89 322.953 1070.86 322.966 1070.83 322.984C1070.75 323.019 1070.65 323.072 1070.5 323.141C1070.21 323.279 1069.77 323.481 1069.19 323.737C1068.01 324.247 1066.24 324.971 1063.86 325.815C1059.1 327.504 1051.92 329.679 1042.22 331.611C1022.82 335.475 993.386 338.368 953.259 334.462C873.004 326.65 749.977 291.639 579.018 182.768C407.96 73.834 284.783 38.7524 204.337 30.922C164.114 27.0067 134.578 29.9048 115.086 33.788C105.34 35.7295 98.1062 37.9172 93.3038 39.622C90.9026 40.4744 89.1093 41.2061 87.914 41.7259C87.3163 41.9858 86.8681 42.1928 86.5681 42.3353C86.4181 42.4066 86.3052 42.4618 86.2291 42.4995C86.1911 42.5184 86.1623 42.5328 86.1427 42.5427L86.1202 42.5542L86.1142 42.5573C86.1126 42.5581 86.1116 42.5586 86.3409 43.0029ZM84.3218 50.4879C84.3201 50.4849 84.316 50.4771 84.3054 50.4568C84.2817 50.4114 84.2258 50.3031 84.0929 50.0457C83.8636 49.6014 83.8646 49.6009 83.8662 49.6001L83.8723 49.597L83.8948 49.5855C83.9144 49.5756 83.9432 49.5612 83.9812 49.5423C84.0572 49.5046 84.1701 49.4494 84.3201 49.3781C84.6201 49.2355 85.0683 49.0286 85.666 48.7687C86.8614 48.2489 88.6546 47.5172 91.0558 46.6648C95.8582 44.96 103.092 42.7723 112.838 40.8308C132.33 36.9476 161.866 34.0495 202.089 37.9648C282.535 45.7952 405.712 80.8768 576.77 189.811C747.729 298.681 870.756 333.693 951.011 341.505C991.138 345.411 1020.58 342.517 1039.97 338.654C1049.67 336.722 1056.85 334.547 1061.61 332.858C1063.99 332.013 1065.76 331.29 1066.94 330.779C1067.53 330.524 1067.96 330.322 1068.25 330.184C1068.4 330.115 1068.51 330.062 1068.58 330.027C1068.61 330.009 1068.64 329.996 1068.66 329.987L1068.68 329.978L1068.68 329.975C1068.68 329.975 1068.68 329.975 1068.77 330.153L1068.91 330.419C1069.14 330.864 1069.14 330.864 1069.14 330.865L1069.13 330.868L1069.11 330.88L1069.07 330.897L1069.02 330.923L1068.95 330.956L1068.87 330.998L1068.78 331.038L1068.68 331.087C1068.38 331.23 1067.93 331.437 1067.34 331.696C1066.14 332.216 1064.35 332.948 1061.95 333.8C1057.15 335.505 1049.91 337.693 1040.17 339.634C1020.67 343.518 991.137 346.416 950.914 342.5C870.468 334.67 747.291 299.588 576.233 190.654C405.274 81.7837 282.247 46.7719 201.992 38.96C161.865 35.0542 132.428 37.9478 113.033 41.8115C103.336 43.7434 96.1484 45.9181 91.3903 47.6072C89.0113 48.4517 87.2394 49.1749 86.0648 49.6857C85.4775 49.9411 85.0394 50.1435 84.7494 50.2813C84.6044 50.3502 84.4964 50.403 84.4253 50.4383C84.3897 50.4559 84.3634 50.4692 84.3462 50.4779L84.3273 50.4874L84.3231 50.4896C84.323 50.4897 84.3229 50.4897 84.3225 50.4891L84.3218 50.4879ZM82.061 57.5063C82.0748 57.5326 82.075 57.5325 82.0753 57.5324L82.0795 57.5302L82.0984 57.5206L82.1308 57.5043L82.1775 57.4811C82.2486 57.4458 82.3566 57.393 82.5016 57.3241C82.7916 57.1863 83.2297 56.9839 83.817 56.7285C84.9916 56.2177 86.7635 55.4945 89.1426 54.65C93.9007 52.9609 101.088 50.7862 110.786 48.8543C130.18 44.9906 159.618 42.0969 199.745 46.0028C279.999 53.8146 403.027 88.8265 573.985 197.697C745.044 306.631 868.22 341.713 948.666 349.543C988.889 353.458 1018.43 350.56 1037.92 346.677C1047.66 344.736 1054.9 342.548 1059.7 340.843C1062.1 339.991 1063.89 339.259 1065.09 338.739C1065.69 338.479 1066.14 338.272 1066.44 338.13C1066.59 338.059 1066.7 338.003 1066.77 337.966L1066.82 337.942L1066.86 337.922L1066.88 337.911L1066.89 337.908C1066.89 337.907 1066.89 337.907 1066.66 337.462L1066.53 337.196C1066.43 337.018 1066.43 337.018 1066.43 337.018L1066.43 337.021L1066.41 337.03C1066.39 337.039 1066.37 337.052 1066.33 337.07L1066.31 337.081L1066.2 337.131C1066.15 337.158 1066.08 337.19 1066.01 337.227C1065.72 337.364 1065.28 337.567 1064.69 337.822C1063.52 338.333 1061.74 339.056 1059.37 339.901C1054.61 341.59 1047.42 343.765 1037.72 345.696C1018.33 349.56 988.89 352.454 948.763 348.548C868.509 340.736 745.481 305.724 574.522 196.854C403.464 87.9196 280.287 52.838 199.842 45.0075C159.619 41.0923 130.082 43.9903 110.59 47.8736C100.844 49.8151 93.6105 52.0028 88.808 53.7076C86.4068 54.56 84.6136 55.2917 83.4182 55.8115C82.8205 56.0714 82.3723 56.2783 82.0724 56.4209C81.9224 56.4922 81.8094 56.5474 81.7334 56.5851L81.6713 56.6161L81.647 56.6283L81.6245 56.6397L81.6184 56.6429C81.6168 56.6437 81.6158 56.6442 81.8451 57.0885L81.9611 57.3131C82.0185 57.4243 82.0469 57.4792 82.061 57.5063ZM79.8273 64.5752C79.8266 64.5756 79.8265 64.5756 79.5972 64.1313C79.3679 63.687 79.3689 63.6865 79.3705 63.6856L79.3766 63.6825L79.3991 63.6711C79.4186 63.6612 79.4474 63.6467 79.4855 63.6279C79.5615 63.5902 79.6744 63.535 79.8244 63.4637C80.1244 63.3211 80.5726 63.1142 81.1703 62.8543C82.3656 62.3345 84.1589 61.6028 86.5601 60.7504C91.3625 59.0455 98.5964 56.8579 108.342 54.9164C127.834 51.0331 157.371 48.1351 197.594 52.0503C278.039 59.8808 401.216 94.9624 572.274 203.896C743.233 312.767 866.261 347.779 946.515 355.591C986.642 359.497 1016.08 356.603 1035.47 352.739C1045.17 350.807 1052.36 348.633 1057.12 346.944C1059.5 346.099 1061.27 345.376 1062.44 344.865C1063.03 344.61 1063.47 344.407 1063.76 344.269C1063.9 344.201 1064.01 344.148 1064.08 344.112C1064.12 344.095 1064.14 344.082 1064.16 344.073L1064.18 344.063L1064.18 344.061C1064.18 344.061 1064.18 344.061 1064.19 344.067L1064.2 344.086L1064.21 344.114L1064.28 344.239L1064.41 344.505C1064.64 344.949 1064.64 344.95 1064.64 344.951L1064.64 344.954L1064.61 344.965L1064.57 344.986L1064.53 345.008C1064.45 345.046 1064.34 345.101 1064.19 345.173C1063.89 345.315 1063.44 345.522 1062.84 345.782C1061.65 346.302 1059.85 347.034 1057.45 347.886C1052.65 349.591 1045.42 351.778 1035.67 353.72C1016.18 357.603 986.641 360.501 946.418 356.586C865.972 348.756 742.796 313.674 571.737 204.74C400.779 95.8693 277.751 60.8574 197.497 53.0456C157.37 49.1397 127.932 52.0334 108.538 55.8971C98.8402 57.829 91.6527 60.0037 86.8946 61.6928C84.5155 62.5373 82.7437 63.2605 81.5691 63.7713C80.9817 64.0267 80.5437 64.229 80.2537 64.3669C80.1087 64.4358 80.0007 64.4886 79.9296 64.5239L79.8764 64.5504L79.8505 64.5634L79.8316 64.573L79.8273 64.5752ZM77.5637 71.5888C77.5791 71.6182 77.5793 71.6181 77.5796 71.618L77.5838 71.6158L77.6027 71.6062C77.6199 71.5975 77.6462 71.5843 77.6818 71.5667C77.7529 71.5314 77.8609 71.4786 78.0059 71.4097C78.2959 71.2718 78.734 71.0695 79.3213 70.8141C80.4959 70.3033 82.2678 69.5801 84.6468 68.7355C89.405 67.0464 96.5924 64.8718 106.29 62.9399C125.684 59.0762 155.122 56.1825 195.249 60.0884C275.503 67.9002 398.531 102.912 569.49 211.783C740.548 320.717 863.725 355.798 944.17 363.629C984.393 367.544 1013.93 364.646 1033.42 360.763C1043.17 358.821 1050.4 356.634 1055.2 354.929C1057.61 354.076 1059.4 353.345 1060.59 352.825C1061.19 352.565 1061.64 352.358 1061.94 352.215C1062.09 352.144 1062.2 352.089 1062.28 352.051C1062.32 352.032 1062.35 352.018 1062.36 352.008L1062.39 351.997L1062.39 351.993C1062.4 351.993 1062.4 351.992 1062.17 351.548L1062.03 351.282C1061.94 351.104 1061.94 351.104 1061.94 351.104L1061.93 351.106L1061.91 351.116C1061.9 351.124 1061.87 351.138 1061.83 351.155C1061.76 351.19 1061.66 351.243 1061.51 351.312C1061.22 351.45 1060.78 351.652 1060.19 351.908C1059.02 352.419 1057.25 353.142 1054.87 353.986C1050.11 355.675 1042.92 357.85 1033.23 359.782C1013.83 363.646 984.394 366.539 944.267 362.633C864.013 354.822 740.985 319.81 570.027 210.939C398.968 102.005 275.792 66.9236 195.346 59.0931C155.123 55.1779 125.587 58.0759 106.094 61.9591C96.3487 63.9007 89.1147 66.0883 84.3123 67.7932C81.9111 68.6456 80.1179 69.3772 78.9225 69.8971C78.3248 70.157 77.8766 70.3639 77.5766 70.5065C77.4266 70.5778 77.3137 70.633 77.2377 70.6707C77.1997 70.6895 77.1709 70.704 77.1513 70.7139L77.1288 70.7253L77.1227 70.7284C77.1211 70.7293 77.1201 70.7298 77.3494 71.1741L77.5259 71.5159L77.5637 71.5888ZM75.3318 78.6606C75.3311 78.661 75.3309 78.661 75.1016 78.2167C74.8723 77.7724 74.8733 77.7719 74.8749 77.7711L74.881 77.768L74.9035 77.7565C74.9231 77.7466 74.9519 77.7322 74.9899 77.7133C75.0659 77.6756 75.1789 77.6204 75.3288 77.5491C75.6288 77.4065 76.077 77.1996 76.6747 76.9397C77.8701 76.4199 79.6633 75.6882 82.0645 74.8358C86.867 73.131 94.1009 70.9433 103.847 69.0018C123.339 65.1185 152.875 62.2205 193.098 66.1357C273.544 73.9662 396.721 109.048 567.779 217.982C738.738 326.852 861.765 361.864 942.02 369.676C982.147 373.582 1011.58 370.688 1030.98 366.825C1040.68 364.893 1047.86 362.718 1052.62 361.029C1055 360.184 1056.77 359.461 1057.95 358.95C1058.28 358.806 1058.56 358.679 1058.8 358.57C1058.89 358.53 1058.97 358.493 1059.04 358.459C1059.09 358.436 1059.14 358.414 1059.18 358.394L1059.26 358.355C1059.41 358.286 1059.52 358.233 1059.59 358.198C1059.62 358.18 1059.65 358.167 1059.67 358.158L1059.68 358.149L1059.69 358.147C1059.69 358.146 1059.69 358.146 1059.78 358.324L1059.92 358.59C1060.15 359.035 1060.15 359.035 1060.15 359.036L1060.14 359.039L1060.12 359.051L1060.09 359.067L1060.03 359.094L1059.99 359.114L1059.94 359.138L1059.87 359.175C1059.81 359.199 1059.76 359.227 1059.69 359.258C1059.63 359.289 1059.55 359.324 1059.47 359.361C1059.42 359.386 1059.36 359.412 1059.3 359.44C1059.24 359.467 1059.18 359.495 1059.12 359.524C1058.9 359.625 1058.64 359.74 1058.35 359.868C1057.15 360.387 1055.36 361.119 1052.96 361.971C1048.15 363.676 1040.92 365.864 1031.17 367.805C1011.68 371.689 982.145 374.587 941.923 370.671C861.477 362.841 738.3 327.759 567.242 218.825C396.283 109.955 273.255 74.9429 193.001 67.131C152.874 63.2251 123.436 66.1188 104.042 69.9825C94.3446 71.9144 87.1572 74.0891 82.3991 75.7782C80.02 76.6227 78.2481 77.3459 77.0735 77.8567C76.4862 78.1121 76.0481 78.3145 75.7581 78.4523C75.6941 78.4827 75.6372 78.51 75.5876 78.5341C75.5249 78.5644 75.4737 78.5896 75.434 78.6093C75.3984 78.6269 75.3721 78.6402 75.3549 78.6488L75.336 78.6584L75.3318 78.6606ZM72.8537 85.2595C73.083 85.7038 73.0831 85.7038 73.0838 85.7034L73.0881 85.7012L73.1069 85.6916C73.1241 85.683 73.1505 85.6697 73.186 85.6521C73.2572 85.6168 73.3652 85.564 73.5102 85.4951C73.8002 85.3573 74.2382 85.1549 74.8255 84.8995C76.0002 84.3887 77.772 83.6655 80.1511 82.821C84.9092 81.1319 92.0966 78.9572 101.794 77.0253C121.188 73.1616 150.626 70.2679 190.753 74.1738C271.007 81.9856 394.035 116.997 564.994 225.868C736.052 334.802 859.229 369.884 939.675 377.714C979.898 381.629 1009.43 378.731 1028.93 374.848C1038.67 372.907 1045.91 370.719 1050.71 369.014C1053.11 368.162 1054.9 367.43 1056.1 366.91C1056.7 366.65 1057.14 366.443 1057.44 366.301C1057.59 366.23 1057.71 366.174 1057.78 366.137C1057.82 366.118 1057.85 366.103 1057.87 366.093L1057.89 366.082L1057.9 366.079C1057.9 366.078 1057.9 366.078 1057.86 365.999L1057.8 365.884L1057.67 365.633L1057.53 365.367C1057.48 365.256 1057.45 365.214 1057.45 365.198C1057.44 365.189 1057.44 365.189 1057.44 365.189L1057.44 365.192L1057.42 365.201C1057.4 365.21 1057.37 365.223 1057.34 365.241C1057.27 365.276 1057.16 365.329 1057.01 365.398C1056.72 365.536 1056.29 365.738 1055.7 365.993C1054.52 366.504 1052.75 367.227 1050.37 368.072C1045.62 369.761 1038.43 371.936 1028.73 373.867C1009.34 377.731 979.899 380.625 939.772 376.719C859.517 368.907 736.49 333.895 565.531 225.025C394.473 116.091 271.296 81.009 190.85 73.1785C150.627 69.2633 121.091 72.1613 101.599 76.0446C91.8529 77.9861 84.619 80.1738 79.8166 81.8786C77.4154 82.731 75.6221 83.4627 74.4268 83.9825C73.8291 84.2424 73.3809 84.4493 73.0809 84.5919C72.9309 84.6632 72.818 84.7184 72.7419 84.7561C72.7039 84.7749 72.6751 84.7894 72.6555 84.7993L72.6331 84.8107L72.627 84.8139C72.6254 84.8147 72.6244 84.8152 72.8537 85.2595ZM70.836 92.7462C70.8353 92.7466 70.8352 92.7466 70.6059 92.3023C70.3766 91.858 70.3776 91.8575 70.3792 91.8566L70.3853 91.8535L70.4078 91.8421C70.4273 91.8322 70.4561 91.8177 70.4942 91.7989C70.5702 91.7612 70.6831 91.706 70.8331 91.6347C71.1331 91.4921 71.5813 91.2852 72.179 91.0253C73.3743 90.5055 75.1676 89.7738 77.5688 88.9214C82.3712 87.2165 89.6051 85.0289 99.3509 83.0874C118.843 79.2041 148.379 76.3061 188.602 80.2213C269.048 88.0518 392.225 123.133 563.283 232.067C734.242 340.938 857.269 375.95 937.524 383.762C977.651 387.668 1007.09 384.774 1026.48 380.91C1036.18 378.978 1043.37 376.804 1048.13 375.115C1050.5 374.27 1052.28 373.547 1053.45 373.036C1053.76 372.903 1054.02 372.785 1054.25 372.682C1054.45 372.588 1054.63 372.507 1054.77 372.44C1054.91 372.372 1055.02 372.319 1055.09 372.283C1055.13 372.266 1055.15 372.253 1055.17 372.244L1055.19 372.234L1055.19 372.232C1055.19 372.232 1055.19 372.232 1055.2 372.238C1055.2 372.25 1055.22 372.288 1055.29 372.41L1055.42 372.676L1055.54 372.901C1055.58 372.975 1055.6 373.024 1055.62 373.057L1055.64 373.095L1055.65 373.113C1055.65 373.121 1055.65 373.121 1055.65 373.122L1055.64 373.125L1055.62 373.136C1055.6 373.146 1055.57 373.161 1055.54 373.179C1055.5 373.199 1055.45 373.224 1055.39 373.253C1055.33 373.279 1055.27 373.31 1055.2 373.344C1055.01 373.433 1054.76 373.547 1054.46 373.683C1054.28 373.765 1054.07 373.856 1053.85 373.953C1052.65 374.473 1050.86 375.205 1048.46 376.057C1043.66 377.762 1036.42 379.949 1026.68 381.891C1007.19 385.774 977.65 388.672 937.427 384.757C856.981 376.927 733.804 341.845 562.746 232.911C391.787 124.04 268.76 89.0284 188.505 81.2166C148.378 77.3107 118.941 80.2044 99.5463 84.0681C89.8489 86 82.6614 88.1747 77.9033 89.8638C75.5242 90.7083 73.7524 91.4315 72.5778 91.9423C71.9904 92.1977 71.5524 92.4 71.2624 92.5379C71.1174 92.6068 71.0094 92.6596 70.9383 92.6949C70.9027 92.7125 70.8763 92.7257 70.8592 92.7344L70.8403 92.744L70.836 92.7462ZM68.3581 99.3451C68.5874 99.7894 68.5876 99.7893 68.5883 99.789L68.5925 99.7868L68.6114 99.7772L68.6434 99.7611L68.6905 99.7377C68.7616 99.7024 68.8696 99.6496 69.0146 99.5807C69.3046 99.4428 69.7427 99.2405 70.33 98.9851C71.5046 98.4743 73.2765 97.7511 75.6555 96.9065C80.4136 95.2174 87.6011 93.0428 97.2985 91.1109C116.693 87.2472 146.131 84.3535 186.258 88.2594C266.512 96.0712 389.54 131.083 560.498 239.954C731.557 348.888 854.733 383.969 935.179 391.8C975.402 395.715 1004.94 392.817 1024.43 388.934C1034.18 386.992 1041.41 384.805 1046.21 383.1C1048.61 382.247 1050.41 381.516 1051.6 380.996C1052.03 380.809 1052.38 380.65 1052.66 380.522C1052.77 380.472 1052.86 380.427 1052.95 380.386C1053.02 380.354 1053.08 380.325 1053.13 380.3L1053.22 380.257L1053.29 380.222L1053.33 380.201L1053.37 380.179L1053.4 380.168L1053.4 380.164C1053.4 380.164 1053.4 380.164 1053.39 380.14C1053.37 380.1 1053.32 379.995 1053.18 379.719L1053.04 379.453C1052.97 379.324 1052.95 379.288 1052.95 379.279C1052.95 379.275 1052.95 379.275 1052.95 379.275L1052.94 379.277L1052.92 379.287L1052.88 379.31L1052.84 379.326C1052.77 379.362 1052.66 379.414 1052.52 379.483C1052.23 379.621 1051.79 379.823 1051.2 380.079C1050.03 380.59 1048.26 381.313 1045.88 382.157C1041.12 383.846 1033.93 386.021 1024.24 387.953C1004.84 391.817 975.403 394.71 935.276 390.805C855.022 382.993 731.994 347.981 561.035 239.11C389.977 130.176 266.8 95.0946 186.355 87.2641C146.132 83.3489 116.595 86.2469 97.1031 90.1301C87.3574 92.0717 80.1234 94.2593 75.321 95.9642C72.9198 96.8166 71.1266 97.5482 69.9312 98.0681C69.3335 98.328 68.8853 98.5349 68.5853 98.6775L68.4957 98.7203L68.4341 98.7499L68.3754 98.7784C68.3245 98.8031 68.2815 98.8243 68.2464 98.8417C68.2084 98.8605 68.1796 98.875 68.16 98.8849L68.1375 98.8963L68.1314 98.8994C68.1298 98.9003 68.1288 98.9008 68.3581 99.3451ZM66.3403 106.832C66.3396 106.832 66.3395 106.832 66.1102 106.388C65.8809 105.944 65.8819 105.943 65.8835 105.942L65.8895 105.939L65.912 105.928L65.9476 105.91L65.9984 105.884C66.0745 105.847 66.1874 105.792 66.3374 105.72C66.6374 105.578 67.0856 105.371 67.6833 105.111C68.8786 104.591 70.6719 103.859 73.0731 103.007C77.8755 101.302 85.1094 99.1145 94.8552 97.1729C114.347 93.2897 143.884 90.3917 184.107 94.3069C264.552 102.137 387.729 137.219 558.787 246.153C729.746 355.024 852.774 390.036 933.028 397.847C973.155 401.753 1002.59 398.86 1021.99 394.996C1031.68 393.064 1038.87 390.889 1043.63 389.2C1046.01 388.356 1047.78 387.632 1048.96 387.122C1049.54 386.866 1049.98 386.664 1050.27 386.526C1050.42 386.457 1050.52 386.404 1050.6 386.369L1050.63 386.352L1050.67 386.33L1050.69 386.32L1050.7 386.318C1050.7 386.318 1050.7 386.318 1050.7 386.321L1050.71 386.339C1050.72 386.361 1050.74 386.406 1050.79 386.495L1050.93 386.762C1051.02 386.949 1051.08 387.058 1051.11 387.12C1051.16 387.206 1051.16 387.207 1051.15 387.207L1051.15 387.21L1051.13 387.222L1051.09 387.242L1051.04 387.265C1050.96 387.303 1050.85 387.358 1050.7 387.429C1050.4 387.572 1049.95 387.779 1049.35 388.039C1048.16 388.558 1046.37 389.29 1043.96 390.143C1039.16 391.847 1031.93 394.035 1022.18 395.977C1002.69 399.86 973.154 402.758 932.931 398.843C852.485 391.012 729.309 355.931 558.25 246.996C387.292 138.126 264.264 103.114 184.01 95.3022C143.883 91.3963 114.445 94.2899 95.0506 98.1537C85.3531 100.086 78.1657 102.26 73.4076 103.949C71.0285 104.794 69.2567 105.517 68.082 106.028C67.4947 106.283 67.0567 106.486 66.7667 106.623C66.6217 106.692 66.5137 106.745 66.4425 106.78L66.4057 106.799L66.3634 106.82L66.3446 106.83L66.3403 106.832ZM63.8624 113.431L64.0544 113.802C64.0919 113.875 64.0921 113.875 64.0925 113.875L64.0968 113.872L64.1156 113.863C64.1328 113.854 64.1592 113.841 64.1948 113.823C64.2659 113.788 64.3739 113.735 64.5189 113.666C64.8089 113.528 65.2469 113.326 65.8343 113.071C67.0089 112.56 68.7807 111.837 71.1598 110.992C75.9179 109.303 83.1054 107.128 92.8028 105.196C112.197 101.333 141.635 98.4391 181.762 102.345C262.016 110.157 385.044 145.169 556.003 254.039C727.061 362.973 850.238 398.055 930.683 405.885C970.906 409.801 1000.44 406.903 1019.93 403.019C1029.68 401.078 1036.91 398.89 1041.72 397.185C1044.12 396.333 1045.91 395.601 1047.11 395.081C1047.7 394.822 1048.15 394.615 1048.45 394.472C1048.53 394.436 1048.59 394.404 1048.65 394.376L1048.73 394.337L1048.79 394.308L1048.84 394.286C1048.85 394.277 1048.87 394.27 1048.88 394.265L1048.9 394.253L1048.91 394.25C1048.91 394.249 1048.91 394.249 1048.68 393.804L1048.54 393.538L1048.47 393.392L1048.45 393.366C1048.45 393.36 1048.45 393.36 1048.45 393.36L1048.45 393.363L1048.43 393.372C1048.41 393.381 1048.38 393.394 1048.35 393.412C1048.31 393.428 1048.27 393.448 1048.23 393.471C1048.17 393.499 1048.1 393.532 1048.02 393.569C1047.73 393.707 1047.3 393.909 1046.71 394.164C1045.53 394.675 1043.76 395.398 1041.38 396.243C1036.62 397.932 1029.44 400.107 1019.74 402.039C1000.35 405.902 970.907 408.796 930.78 404.89C850.526 397.078 727.498 362.066 556.54 253.196C385.481 144.262 262.305 109.18 181.859 101.35C141.636 97.4345 112.1 100.332 92.6074 104.216C82.8616 106.157 75.6277 108.345 70.8253 110.05C68.4241 110.902 66.6308 111.634 65.4355 112.154C64.8378 112.414 64.3896 112.62 64.0896 112.763C63.9396 112.834 63.8267 112.89 63.7506 112.927C63.7126 112.946 63.6838 112.961 63.6643 112.97L63.6418 112.982L63.6357 112.985C63.6341 112.986 63.6331 112.986 63.8624 113.431ZM61.8447 120.917C61.844 120.918 61.8439 120.918 61.6146 120.473C61.3853 120.029 61.3863 120.029 61.3879 120.028L61.394 120.025L61.4165 120.013L61.4649 119.989L61.5029 119.97C61.5789 119.932 61.6918 119.877 61.8418 119.806C62.1418 119.663 62.59 119.456 63.1877 119.196C64.383 118.677 66.1763 117.945 68.5775 117.093C73.3799 115.388 80.6138 113.2 90.3596 111.259C109.852 107.375 139.388 104.477 179.611 108.392C260.057 116.223 383.234 151.305 554.292 260.239C725.251 369.109 848.278 404.121 928.532 411.933C968.66 415.839 998.097 412.945 1017.49 409.081C1027.19 407.15 1034.38 404.975 1039.13 403.286C1041.51 402.441 1043.29 401.718 1044.46 401.207C1044.81 401.054 1045.11 400.919 1045.36 400.806C1045.46 400.758 1045.56 400.713 1045.65 400.673L1045.71 400.641L1045.78 400.612L1045.88 400.561C1045.93 400.539 1045.97 400.519 1046 400.502C1046.04 400.484 1046.07 400.468 1046.1 400.455L1046.16 400.424L1046.18 400.415L1046.2 400.406L1046.2 400.403C1046.2 400.403 1046.2 400.403 1046.2 400.406L1046.21 400.42L1046.23 400.447L1046.29 400.581L1046.43 400.847C1046.66 401.292 1046.66 401.292 1046.66 401.293L1046.65 401.296L1046.63 401.307C1046.61 401.317 1046.58 401.332 1046.54 401.351L1046.51 401.367C1046.47 401.387 1046.42 401.411 1046.36 401.439C1046.32 401.462 1046.26 401.487 1046.2 401.515L1046.12 401.554L1046.06 401.585C1045.96 401.629 1045.86 401.679 1045.74 401.733C1045.49 401.845 1045.2 401.976 1044.86 402.124C1043.66 402.644 1041.87 403.376 1039.47 404.228C1034.67 405.933 1027.43 408.121 1017.69 410.062C998.195 413.945 968.658 416.843 928.436 412.928C847.99 405.098 724.813 370.016 553.755 261.082C382.796 152.211 259.768 117.2 179.514 109.388C139.387 105.482 109.949 108.376 90.555 112.239C80.8576 114.171 73.6701 116.346 68.912 118.035C66.5329 118.879 64.7611 119.603 63.5865 120.113C62.9991 120.369 62.5611 120.571 62.2711 120.709C62.1261 120.778 62.0181 120.831 61.947 120.866C61.9114 120.884 61.885 120.897 61.8679 120.906L61.849 120.915L61.8447 120.917ZM59.3667 127.516C59.596 127.96 59.5961 127.96 59.5968 127.96L59.601 127.958L59.6199 127.948L59.6543 127.931L59.699 127.909C59.7702 127.873 59.8782 127.821 60.0232 127.752C60.3132 127.614 60.7512 127.412 61.3385 127.156C62.5132 126.645 64.285 125.922 66.6641 125.078C71.4222 123.388 78.6096 121.214 88.3071 119.282C107.701 115.418 137.139 112.525 177.266 116.43C257.52 124.242 380.548 159.254 551.507 268.125C722.565 377.059 845.742 412.14 926.188 419.971C966.411 423.886 995.947 420.988 1015.44 417.105C1025.18 415.163 1032.42 412.976 1037.22 411.271C1039.62 410.418 1041.42 409.687 1042.61 409.167C1043.21 408.907 1043.66 408.7 1043.96 408.557C1044.11 408.486 1044.22 408.431 1044.3 408.393C1044.33 408.374 1044.36 408.36 1044.38 408.35L1044.4 408.339L1044.41 408.335C1044.41 408.335 1044.41 408.335 1044.35 408.209C1044.31 408.143 1044.26 408.043 1044.18 407.89L1044.05 407.624C1043.98 407.486 1043.96 407.455 1043.96 407.448C1043.95 407.446 1043.95 407.446 1043.95 407.446L1043.95 407.448L1043.93 407.458L1043.9 407.473L1043.85 407.497C1043.78 407.532 1043.67 407.585 1043.53 407.654C1043.24 407.792 1042.8 407.994 1042.21 408.25C1041.04 408.761 1039.27 409.484 1036.89 410.328C1032.13 412.017 1024.94 414.192 1015.24 416.124C995.849 419.988 966.412 422.881 926.285 418.975C846.03 411.164 723.003 376.152 552.044 267.281C380.986 158.347 257.809 123.266 177.363 115.435C137.14 111.52 107.604 114.418 88.1117 118.301C78.3659 120.243 71.132 122.43 66.3295 124.135C63.9284 124.988 62.1351 125.719 60.9397 126.239C60.3421 126.499 59.8939 126.706 59.5939 126.849C59.4439 126.92 59.3309 126.975 59.2549 127.013C59.2169 127.032 59.1881 127.046 59.1685 127.056L59.146 127.067L59.14 127.07C59.1384 127.071 59.1373 127.072 59.3667 127.516ZM57.349 135.003C57.3483 135.003 57.3482 135.003 57.1189 134.559C56.8896 134.115 56.8906 134.114 56.8922 134.113L56.8983 134.11L56.9207 134.099C56.9403 134.089 56.9691 134.074 57.0071 134.055C57.0832 134.018 57.1961 133.963 57.3461 133.891C57.6461 133.749 58.0943 133.542 58.692 133.282C59.8873 132.762 61.6806 132.03 64.0818 131.178C68.8842 129.473 76.1181 127.285 85.8639 125.344C105.356 121.461 134.892 118.563 175.115 122.478C255.561 130.308 378.738 165.39 549.796 274.324C720.755 383.195 843.782 418.206 924.037 426.018C964.164 429.924 993.602 427.031 1013 423.167C1022.69 421.235 1029.88 419.06 1034.64 417.371C1037.02 416.527 1038.79 415.803 1039.96 415.293C1040.55 415.037 1040.99 414.835 1041.28 414.697C1041.42 414.628 1041.53 414.575 1041.6 414.54C1041.64 414.522 1041.67 414.509 1041.68 414.5L1041.7 414.491L1041.71 414.489C1041.71 414.489 1041.71 414.488 1041.73 414.525L1041.8 414.666L1041.94 414.933C1042.17 415.377 1042.16 415.377 1042.16 415.378L1042.16 415.381L1042.13 415.393C1042.11 415.403 1042.09 415.417 1042.05 415.436C1041.97 415.474 1041.86 415.529 1041.71 415.6C1041.41 415.743 1040.96 415.95 1040.36 416.21C1039.17 416.729 1037.37 417.461 1034.97 418.314C1030.17 420.018 1022.94 422.206 1013.19 424.148C993.699 428.031 964.163 430.929 923.94 427.014C843.494 419.183 720.317 384.102 549.259 275.167C378.3 166.297 255.273 131.285 175.018 123.473C134.891 119.567 105.454 122.461 86.0593 126.325C76.3618 128.257 69.1744 130.431 64.4163 132.12C62.0372 132.965 60.2654 133.688 59.0907 134.199C58.5034 134.454 58.0654 134.657 57.7754 134.794C57.7019 134.829 57.6379 134.86 57.5833 134.887C57.5304 134.912 57.4863 134.934 57.4512 134.951L57.3961 134.979L57.3721 134.991L57.3533 135.001L57.349 135.003ZM55.0851 142.016L55.0983 142.041C55.1008 142.046 55.1009 142.046 55.1011 142.046L55.1053 142.043L55.1242 142.034C55.1414 142.025 55.1677 142.012 55.2033 141.994C55.2744 141.959 55.3824 141.906 55.5274 141.837C55.8174 141.699 56.2555 141.497 56.8428 141.242C58.0174 140.731 59.7893 140.008 62.1684 139.163C66.9265 137.474 74.1139 135.299 83.8114 133.367C103.206 129.504 132.643 126.61 172.77 130.516C253.025 138.328 376.052 173.34 547.011 282.21C718.069 391.144 841.246 426.226 921.692 434.056C961.915 437.972 991.451 435.074 1010.94 431.19C1020.69 429.249 1027.92 427.061 1032.73 425.356C1035.13 424.504 1036.92 423.772 1038.12 423.252C1038.71 422.993 1039.16 422.786 1039.46 422.643C1039.61 422.572 1039.72 422.517 1039.8 422.479C1039.84 422.46 1039.87 422.446 1039.89 422.436L1039.91 422.424L1039.91 422.421C1039.92 422.42 1039.92 422.42 1039.69 421.975L1039.55 421.709L1039.48 421.579C1039.47 421.554 1039.46 421.542 1039.46 421.537C1039.46 421.531 1039.46 421.531 1039.46 421.531L1039.45 421.534L1039.44 421.543C1039.42 421.552 1039.39 421.565 1039.36 421.583C1039.32 421.601 1039.27 421.624 1039.21 421.652L1039.16 421.677L1039.07 421.72L1039.03 421.74C1038.74 421.878 1038.3 422.08 1037.72 422.335C1036.54 422.846 1034.77 423.569 1032.39 424.414C1027.63 426.103 1020.45 428.278 1010.75 430.21C991.354 434.073 961.916 436.967 921.789 433.061C841.534 425.249 718.507 390.237 547.548 281.367C376.49 172.433 253.313 137.351 172.867 129.521C132.644 125.605 103.108 128.503 83.616 132.387C73.8702 134.328 66.6363 136.516 61.8338 138.221C59.4326 139.073 57.6394 139.805 56.444 140.325C55.8463 140.585 55.3981 140.791 55.0982 140.934C54.9482 141.005 54.8352 141.061 54.7592 141.098C54.7212 141.117 54.6924 141.132 54.6728 141.141L54.6503 141.153L54.6442 141.156C54.6427 141.157 54.6416 141.157 54.8709 141.602C55.007 141.865 55.0624 141.973 55.0851 142.016ZM52.8533 149.088C52.8526 149.089 52.8525 149.089 52.6231 148.644C52.3938 148.2 52.3949 148.2 52.3965 148.199L52.4025 148.196L52.425 148.184C52.4446 148.174 52.4734 148.16 52.5114 148.141C52.5874 148.103 52.7004 148.048 52.8504 147.977C53.1503 147.834 53.5985 147.627 54.1962 147.367C55.3916 146.848 57.1848 146.116 59.586 145.264C64.3885 143.559 71.6224 141.371 81.3682 139.43C100.86 135.546 130.397 132.648 170.62 136.563C251.065 144.394 374.242 179.476 545.3 288.41C716.259 397.28 839.287 432.292 919.541 440.104C959.668 444.01 989.106 441.116 1008.5 437.252C1018.2 435.321 1025.39 433.146 1030.14 431.457C1032.52 430.612 1034.29 429.889 1035.47 429.378C1036.06 429.123 1036.49 428.92 1036.78 428.783C1036.84 428.754 1036.9 428.728 1036.95 428.705C1037.01 428.673 1037.07 428.646 1037.11 428.626C1037.14 428.608 1037.17 428.595 1037.19 428.586L1037.21 428.576L1037.21 428.574C1037.21 428.574 1037.21 428.574 1037.3 428.752L1037.44 429.018C1037.67 429.462 1037.67 429.463 1037.67 429.464L1037.66 429.467L1037.64 429.478C1037.62 429.488 1037.59 429.503 1037.55 429.522C1037.48 429.559 1037.36 429.614 1037.21 429.686C1036.91 429.828 1036.47 430.035 1035.87 430.295C1034.67 430.815 1032.88 431.547 1030.48 432.399C1025.68 434.104 1018.44 436.292 1008.7 438.233C989.203 442.116 959.667 445.014 919.444 441.099C838.998 433.269 715.822 398.187 544.763 289.253C373.805 180.382 250.777 145.371 170.523 137.559C130.396 133.653 100.958 136.547 81.5636 140.41C71.8661 142.342 64.6787 144.517 59.9206 146.206C57.5415 147.05 55.7697 147.774 54.595 148.284C54.0077 148.54 53.5697 148.742 53.2796 148.88C53.1347 148.949 53.0267 149.002 52.9555 149.037C52.9199 149.055 52.8936 149.068 52.8764 149.077L52.8575 149.086L52.8533 149.088ZM50.3754 155.687C50.6047 156.132 50.6048 156.132 50.6055 156.131L50.6098 156.129L50.6286 156.119C50.6458 156.111 50.6722 156.097 50.7077 156.08C50.7789 156.045 50.8869 155.992 51.0319 155.923C51.3219 155.785 51.7599 155.583 52.3472 155.327C53.5219 154.816 55.2937 154.093 57.6728 153.249C62.4309 151.56 69.6183 149.385 79.3158 147.453C98.7101 143.589 128.148 140.696 168.275 144.602C248.529 152.413 371.557 187.425 542.515 296.296C713.574 405.23 836.75 440.312 917.196 448.142C957.419 452.057 986.956 449.159 1006.45 445.276C1016.19 443.334 1023.43 441.147 1028.23 439.442C1030.63 438.59 1032.42 437.858 1033.62 437.338C1033.99 437.178 1034.3 437.038 1034.55 436.921C1034.71 436.848 1034.85 436.783 1034.97 436.729C1035.12 436.657 1035.23 436.602 1035.3 436.564C1035.34 436.546 1035.37 436.531 1035.39 436.521L1035.41 436.51L1035.42 436.507C1035.42 436.506 1035.42 436.505 1035.19 436.061L1035.06 435.795L1034.98 435.644C1034.96 435.617 1034.96 435.617 1034.96 435.617L1034.96 435.619L1034.94 435.629L1034.89 435.652L1034.86 435.668C1034.79 435.704 1034.68 435.756 1034.54 435.825C1034.25 435.963 1033.81 436.166 1033.22 436.421C1032.05 436.932 1030.27 437.655 1027.9 438.5C1023.14 440.189 1015.95 442.363 1006.25 444.295C986.858 448.159 957.42 451.053 917.293 447.147C837.039 439.335 714.011 404.323 543.053 295.452C371.994 186.518 248.818 151.437 168.372 143.606C128.149 139.691 98.6126 142.589 79.1204 146.472C69.3746 148.414 62.1407 150.601 57.3382 152.306C54.9371 153.159 53.1438 153.89 51.9484 154.41C51.3508 154.67 50.9026 154.877 50.6026 155.02C50.4526 155.091 50.3397 155.146 50.2636 155.184C50.2256 155.203 50.1968 155.217 50.1772 155.227L50.1547 155.238L50.1487 155.242C50.1471 155.242 50.1461 155.243 50.3754 155.687ZM48.3575 163.174C48.3568 163.174 48.3567 163.174 48.1274 162.73C47.8981 162.286 47.8991 162.285 47.9007 162.284L47.9068 162.281L47.9293 162.27C47.9489 162.26 47.9776 162.245 48.0157 162.227C48.0917 162.189 48.2046 162.134 48.3546 162.062C48.6546 161.92 49.1028 161.713 49.7005 161.453C50.8958 160.933 52.6891 160.202 55.0903 159.349C59.8927 157.644 67.1267 155.457 76.8724 153.515C96.3646 149.632 125.901 146.734 166.124 150.649C246.57 158.48 369.746 193.561 540.805 302.495C711.763 411.366 834.791 446.378 915.045 454.189C955.172 458.095 984.61 455.202 1004 451.338C1013.7 449.406 1020.89 447.231 1025.65 445.542C1028.03 444.698 1029.8 443.975 1030.97 443.464C1031.13 443.397 1031.27 443.334 1031.4 443.275C1031.52 443.222 1031.63 443.172 1031.74 443.125C1031.79 443.101 1031.84 443.079 1031.88 443.057L1031.99 443.007C1032.1 442.955 1032.2 442.909 1032.29 442.868C1032.43 442.799 1032.54 442.746 1032.61 442.711C1032.65 442.694 1032.67 442.68 1032.69 442.672L1032.71 442.662L1032.71 442.66C1032.72 442.66 1032.72 442.659 1032.81 442.838L1032.94 443.104C1033.17 443.548 1033.17 443.549 1033.17 443.549L1033.17 443.553L1033.14 443.564C1033.12 443.574 1033.09 443.588 1033.06 443.607C1033.01 443.629 1032.96 443.655 1032.89 443.688C1032.84 443.712 1032.78 443.74 1032.72 443.771C1032.42 443.914 1031.97 444.121 1031.37 444.381C1030.18 444.901 1028.38 445.632 1025.98 446.485C1021.18 448.19 1013.95 450.377 1004.2 452.319C984.708 456.202 955.171 459.1 914.948 455.185C834.503 447.354 711.326 412.273 540.268 303.339C369.309 194.468 246.281 159.456 166.027 151.644C125.9 147.738 96.4621 150.632 77.0678 154.496C67.3704 156.428 60.1829 158.602 55.4248 160.291C53.0457 161.136 51.2739 161.859 50.0993 162.37C49.512 162.625 49.0739 162.828 48.7839 162.966L48.68 163.015L48.6055 163.051C48.5463 163.08 48.4978 163.104 48.4598 163.123L48.4029 163.151L48.3807 163.162L48.3618 163.172L48.3575 163.174ZM45.8796 169.773C46.1089 170.217 46.1091 170.217 46.1098 170.217L46.114 170.215L46.1329 170.205C46.1501 170.196 46.1764 170.183 46.212 170.165C46.2831 170.13 46.3911 170.077 46.5361 170.008C46.8261 169.871 47.2642 169.668 47.8515 169.413C49.0261 168.902 50.798 168.179 53.177 167.334C57.9352 165.645 65.1226 163.471 74.82 161.539C94.2143 157.675 123.652 154.781 163.779 158.687C244.033 166.499 367.061 201.511 538.02 310.381C709.078 419.316 832.255 454.397 912.701 462.228C952.924 466.143 982.46 463.245 1001.95 459.361C1011.7 457.42 1018.93 455.232 1023.73 453.528C1026.14 452.675 1027.93 451.943 1029.12 451.424C1029.3 451.348 1029.46 451.277 1029.61 451.211C1029.66 451.189 1029.7 451.168 1029.75 451.148C1029.85 451.102 1029.94 451.06 1030.03 451.019C1030.2 450.941 1030.35 450.872 1030.47 450.814C1030.54 450.781 1030.6 450.751 1030.66 450.725C1030.72 450.695 1030.77 450.67 1030.81 450.65C1030.85 450.631 1030.88 450.617 1030.9 450.607L1030.92 450.595L1030.92 450.592C1030.93 450.591 1030.93 450.591 1030.7 450.147L1030.56 449.88C1030.5 449.758 1030.48 449.72 1030.47 449.708L1030.47 449.703C1030.47 449.703 1030.47 449.703 1030.47 449.703L1030.46 449.705L1030.44 449.714C1030.43 449.723 1030.4 449.736 1030.36 449.754C1030.29 449.789 1030.19 449.842 1030.04 449.911C1029.75 450.049 1029.31 450.251 1028.73 450.507C1027.55 451.017 1025.78 451.741 1023.4 452.585C1018.64 454.274 1011.45 456.449 1001.76 458.381C982.362 462.244 952.925 465.138 912.798 461.232C832.543 453.42 709.516 418.409 538.557 309.538C367.499 200.604 244.322 165.522 163.876 157.692C123.653 153.777 94.1169 156.675 74.6247 160.558C64.8789 162.499 57.645 164.687 52.8425 166.392C50.4413 167.244 48.6481 167.976 47.4527 168.496C46.855 168.756 46.4068 168.963 46.1068 169.105C45.9569 169.177 45.8439 169.232 45.7679 169.269C45.7299 169.288 45.7011 169.303 45.6815 169.313L45.659 169.324L45.6529 169.327C45.6513 169.328 45.6503 169.329 45.8796 169.773ZM43.862 177.259C43.8613 177.26 43.8612 177.26 43.6319 176.815C43.4025 176.371 43.4036 176.371 43.4052 176.37L43.4112 176.367L43.4337 176.355C43.4533 176.345 43.4821 176.331 43.5201 176.312C43.5961 176.274 43.7091 176.219 43.8591 176.148C44.1591 176.005 44.6073 175.798 45.2049 175.538C46.4003 175.019 48.1935 174.287 50.5947 173.435C55.3972 171.73 62.6311 169.542 72.3769 167.601C91.8691 163.717 121.405 160.819 161.628 164.734C242.074 172.565 365.251 207.647 536.309 316.581C707.268 425.451 830.295 460.463 910.55 468.275C950.677 472.181 980.115 469.287 999.509 465.423C1009.21 463.492 1016.39 461.317 1021.15 459.628C1023.53 458.783 1025.3 458.06 1026.48 457.549C1027.06 457.294 1027.5 457.091 1027.79 456.954C1027.94 456.885 1028.05 456.832 1028.12 456.797L1028.16 456.773L1028.2 456.757L1028.21 456.748L1028.22 456.745C1028.22 456.745 1028.22 456.745 1028.31 456.923L1028.45 457.189C1028.68 457.634 1028.68 457.634 1028.68 457.635L1028.67 457.638L1028.65 457.649L1028.62 457.664L1028.56 457.693C1028.48 457.73 1028.37 457.786 1028.22 457.857C1027.92 457.999 1027.47 458.206 1026.88 458.466C1025.68 458.986 1023.89 459.718 1021.49 460.57C1016.68 462.275 1009.45 464.463 999.704 466.404C980.212 470.287 950.676 473.185 910.453 469.27C830.007 461.44 706.83 426.358 535.772 317.424C364.813 208.553 241.786 173.542 161.531 165.73C121.404 161.824 91.9665 164.718 72.5723 168.581C62.8748 170.513 55.6874 172.688 50.9293 174.377C48.5502 175.221 46.7784 175.945 45.6037 176.455C45.0164 176.711 44.5784 176.913 44.2884 177.051C44.235 177.076 44.1867 177.1 44.1434 177.12L44.0926 177.145L44.0412 177.17L43.9642 177.208L43.9182 177.231L43.8851 177.248L43.8663 177.257L43.862 177.259ZM41.3839 183.858C41.6132 184.303 41.6133 184.303 41.614 184.302L41.6183 184.3L41.6372 184.29C41.6543 184.282 41.6807 184.268 41.7163 184.251C41.7874 184.216 41.8954 184.163 42.0404 184.094C42.3304 183.956 42.7684 183.754 43.3558 183.498C44.5304 182.987 46.3022 182.264 48.6813 181.42C53.4394 179.731 60.6269 177.556 70.3243 175.624C89.7186 171.76 119.156 168.867 159.283 172.773C239.538 180.584 362.565 215.596 533.524 324.467C704.582 433.401 827.759 468.482 908.205 476.313C948.428 480.228 977.964 477.33 997.456 473.447C1007.2 471.505 1014.44 469.318 1019.24 467.613C1021.64 466.761 1023.43 466.029 1024.63 465.509C1025.23 465.249 1025.67 465.042 1025.97 464.9C1026.12 464.828 1026.24 464.773 1026.31 464.735C1026.35 464.717 1026.38 464.702 1026.4 464.692L1026.42 464.681L1026.43 464.678C1026.43 464.678 1026.43 464.677 1026.43 464.677C1026.43 464.676 1026.43 464.672 1026.42 464.664C1026.41 464.634 1026.36 464.539 1026.2 464.232L1026.06 463.966C1025.97 463.788 1025.97 463.788 1025.97 463.788L1025.97 463.79L1025.95 463.8L1025.92 463.814L1025.87 463.839C1025.84 463.854 1025.8 463.872 1025.76 463.893C1025.7 463.922 1025.63 463.956 1025.54 463.996C1025.25 464.134 1024.82 464.337 1024.23 464.592C1023.05 465.103 1021.28 465.826 1018.9 466.67C1014.15 468.36 1006.96 470.534 997.261 472.466C977.867 476.33 948.429 479.224 908.302 475.318C828.047 467.506 705.02 432.494 534.061 323.623C363.003 214.689 239.826 179.608 159.38 171.777C119.157 167.862 89.6211 170.76 70.1289 174.643C60.3831 176.585 53.1492 178.772 48.3468 180.477C45.9456 181.33 44.1523 182.061 42.957 182.581C42.3593 182.841 41.9111 183.048 41.6111 183.191C41.4611 183.262 41.3482 183.317 41.2722 183.355C41.2341 183.374 41.2053 183.388 41.1858 183.398L41.1633 183.409L41.1572 183.413C41.1556 183.413 41.1546 183.414 41.3839 183.858ZM39.3663 191.345C39.3656 191.345 39.3654 191.345 39.1361 190.901C38.9068 190.457 38.9078 190.456 38.9094 190.455L38.9155 190.452L38.938 190.441C38.9576 190.431 38.9864 190.416 39.0244 190.398C39.1004 190.36 39.2133 190.305 39.3633 190.233C39.6633 190.091 40.1115 189.884 40.7092 189.624C41.9046 189.104 43.6978 188.373 46.099 187.52C50.9014 185.815 58.1354 183.628 67.8812 181.686C87.3734 177.803 116.91 174.905 157.133 178.82C237.578 186.651 360.755 221.732 531.813 330.666C702.772 439.537 825.8 474.549 906.054 482.36C946.181 486.266 975.619 483.373 995.013 479.509C1004.71 477.577 1011.9 475.402 1016.66 473.713C1019.04 472.869 1020.81 472.146 1021.98 471.635C1022.24 471.522 1022.47 471.42 1022.67 471.329L1022.81 471.267C1023 471.178 1023.16 471.102 1023.3 471.039C1023.44 470.97 1023.55 470.917 1023.62 470.882C1023.66 470.865 1023.68 470.851 1023.7 470.843L1023.72 470.833L1023.72 470.831C1023.72 470.831 1023.72 470.83 1023.82 471.008L1023.95 471.275C1024.05 471.467 1024.11 471.576 1024.14 471.638C1024.18 471.72 1024.18 471.72 1024.18 471.72L1024.17 471.724L1024.15 471.735C1024.13 471.745 1024.1 471.759 1024.07 471.778C1023.99 471.816 1023.88 471.871 1023.73 471.942C1023.56 472.022 1023.34 472.122 1023.08 472.24C1022.88 472.333 1022.64 472.437 1022.38 472.552C1021.19 473.072 1019.39 473.803 1016.99 474.656C1012.19 476.361 1004.95 478.548 995.208 480.49C975.716 484.373 946.18 487.271 905.957 483.356C825.511 475.525 702.335 440.444 531.276 331.51C360.318 222.639 237.29 187.627 157.036 179.815C116.909 175.909 87.4708 178.803 68.0765 182.667C58.3791 184.599 51.1916 186.773 46.4335 188.462C44.0545 189.307 42.2826 190.03 41.108 190.541C40.5207 190.796 40.0826 190.999 39.7926 191.137C39.6476 191.206 39.5396 191.258 39.4685 191.294L39.4262 191.315L39.3894 191.333L39.3705 191.343L39.3663 191.345ZM36.8882 197.944C37.1175 198.388 37.1176 198.388 37.1183 198.388L37.1226 198.386L37.1414 198.376C37.1586 198.367 37.185 198.354 37.2205 198.336C37.2917 198.301 37.3997 198.248 37.5447 198.179C37.8347 198.042 38.2727 197.839 38.8601 197.584C40.0347 197.073 41.8065 196.35 44.1856 195.505C48.9437 193.816 56.1311 191.642 65.8286 189.71C85.2229 185.846 114.661 182.952 154.788 186.858C235.042 194.67 358.07 229.682 529.028 338.552C700.087 447.487 823.263 482.568 903.709 490.399C943.932 494.314 973.468 491.416 992.961 487.532C1002.71 485.591 1009.94 483.403 1014.74 481.699C1017.14 480.846 1018.94 480.114 1020.13 479.595C1020.73 479.335 1021.18 479.128 1021.48 478.985C1021.63 478.914 1021.74 478.859 1021.82 478.821C1021.86 478.802 1021.88 478.788 1021.9 478.778L1021.93 478.766L1021.93 478.763C1021.93 478.762 1021.93 478.762 1021.71 478.318L1021.57 478.051C1021.48 477.873 1021.48 477.873 1021.48 477.874L1021.47 477.876L1021.45 477.885L1021.42 477.899L1021.37 477.925C1021.33 477.944 1021.28 477.969 1021.22 477.998C1021.19 478.013 1021.16 478.029 1021.12 478.046L1021.05 478.082C1020.76 478.22 1020.32 478.422 1019.73 478.678C1018.56 479.188 1016.79 479.912 1014.41 480.756C1009.65 482.445 1002.46 484.62 992.765 486.552C973.371 490.415 943.933 493.309 903.806 489.403C823.552 481.591 700.524 446.58 529.565 337.709C358.507 228.775 235.33 193.693 154.885 185.863C114.662 181.948 85.1254 184.846 65.6332 188.729C55.8874 190.67 48.6535 192.858 43.8511 194.563C41.4499 195.415 39.6566 196.147 38.4613 196.667C37.8636 196.927 37.4154 197.134 37.1154 197.276C36.9654 197.348 36.8525 197.403 36.7764 197.44L36.7156 197.471L36.69 197.484L36.6676 197.495L36.6615 197.498C36.6599 197.499 36.6589 197.5 36.8882 197.944ZM34.8705 205.431C34.8698 205.431 34.8697 205.431 34.6404 204.987C34.4111 204.542 34.4121 204.542 34.4137 204.541L34.4198 204.538L34.4423 204.526C34.4619 204.517 34.4906 204.502 34.5287 204.483C34.6047 204.446 34.7176 204.39 34.8676 204.319C35.1676 204.176 35.6158 203.97 36.2135 203.71C37.4088 203.19 39.2021 202.458 41.6033 201.606C46.4057 199.901 53.6396 197.713 63.3854 195.772C82.8776 191.888 112.414 188.99 152.637 192.906C233.083 200.736 356.259 235.818 527.318 344.752C698.276 453.622 821.304 488.634 901.558 496.446C941.685 500.352 971.123 497.458 990.517 493.595C1000.21 491.663 1007.4 489.488 1012.16 487.799C1014.54 486.954 1016.31 486.231 1017.49 485.72C1018.07 485.465 1018.51 485.263 1018.8 485.125C1018.95 485.056 1019.05 485.003 1019.13 484.968C1019.16 484.95 1019.19 484.937 1019.2 484.928L1019.22 484.919L1019.23 484.916C1019.23 484.916 1019.23 484.916 1019.32 485.094L1019.46 485.36C1019.53 485.504 1019.58 485.601 1019.62 485.667C1019.64 485.718 1019.66 485.75 1019.67 485.77C1019.69 485.805 1019.69 485.806 1019.68 485.806L1019.68 485.809L1019.66 485.82L1019.63 485.834L1019.57 485.864C1019.49 485.901 1019.38 485.957 1019.23 486.028C1018.93 486.171 1018.48 486.377 1017.88 486.637C1016.69 487.157 1014.9 487.889 1012.49 488.741C1007.69 490.446 1000.46 492.634 990.713 494.575C971.221 498.458 941.684 501.357 901.461 497.441C821.016 489.611 697.839 454.529 526.781 345.595C355.822 236.725 232.794 201.713 152.54 193.901C112.413 189.995 82.9751 192.889 63.5808 196.752C53.8834 198.684 46.6959 200.859 41.9378 202.548C39.5587 203.393 37.7869 204.116 36.6123 204.627C36.0249 204.882 35.5869 205.084 35.2969 205.222C35.2255 205.256 35.1631 205.286 35.1097 205.312C35.0545 205.339 35.0089 205.361 34.9728 205.379C34.9372 205.397 34.9108 205.41 34.8937 205.419L34.8748 205.428L34.8705 205.431ZM32.6028 212.436C32.6223 212.474 32.6225 212.473 32.6228 212.473L32.627 212.471L32.6459 212.462L32.6906 212.439L32.725 212.422C32.7961 212.387 32.9041 212.334 33.0491 212.265C33.3391 212.127 33.7772 211.925 34.3645 211.669C35.5391 211.159 37.311 210.435 39.69 209.591C44.4481 207.902 51.6356 205.727 61.333 203.795C80.7273 199.931 110.165 197.038 150.292 200.944C230.546 208.756 353.574 243.767 524.533 352.638C695.591 461.572 818.768 496.654 899.214 504.484C939.436 508.399 968.973 505.501 988.465 501.618C998.211 499.676 1005.44 497.489 1010.25 495.784C1012.65 494.932 1014.44 494.2 1015.64 493.68C1016.23 493.42 1016.68 493.213 1016.98 493.071C1017.13 492.999 1017.25 492.944 1017.32 492.907C1017.36 492.888 1017.39 492.873 1017.41 492.863L1017.43 492.852L1017.44 492.849C1017.44 492.848 1017.44 492.847 1017.21 492.403L1017.07 492.137C1016.98 491.959 1016.98 491.959 1016.98 491.959L1016.98 491.961L1016.96 491.971L1016.92 491.99L1016.88 492.011C1016.81 492.046 1016.7 492.099 1016.55 492.168C1016.26 492.305 1015.83 492.508 1015.24 492.763C1014.06 493.274 1012.29 493.997 1009.91 494.842C1005.15 496.531 997.967 498.705 988.27 500.637C968.875 504.501 939.438 507.395 899.31 503.489C819.056 495.677 696.029 460.665 525.07 351.795C354.012 242.86 230.835 207.779 150.389 199.948C110.166 196.033 80.6299 198.931 61.1377 202.814C51.3919 204.756 44.1579 206.944 39.3555 208.648C36.9543 209.501 35.1611 210.233 33.9657 210.752C33.368 211.012 32.9198 211.219 32.6198 211.362L32.5322 211.404L32.4329 211.452C32.3891 211.473 32.3507 211.492 32.3176 211.508L32.2809 211.526C32.2429 211.545 32.2141 211.559 32.1945 211.569L32.172 211.581L32.1659 211.584C32.1643 211.585 32.1633 211.585 32.3926 212.029L32.5141 212.265L32.6028 212.436ZM30.3748 219.516C30.3741 219.516 30.374 219.517 30.1447 219.072C29.9154 218.628 29.9164 218.627 29.918 218.627L29.9241 218.623L29.9465 218.612L29.9654 218.602L30.0329 218.569C30.109 218.531 30.2219 218.476 30.3719 218.405C30.6719 218.262 31.1201 218.055 31.7177 217.795C32.9131 217.275 34.7064 216.544 37.1076 215.691C41.91 213.986 49.1439 211.799 58.8897 209.857C78.3819 205.974 107.918 203.076 148.141 206.991C228.587 214.822 351.764 249.903 522.822 358.837C693.781 467.708 816.808 502.72 897.063 510.532C937.19 514.438 966.627 511.544 986.022 507.68C995.719 505.748 1002.91 503.574 1007.66 501.884C1010.04 501.04 1011.82 500.317 1012.99 499.806C1013.58 499.55 1014.02 499.348 1014.31 499.21C1014.45 499.141 1014.56 499.089 1014.63 499.053L1014.68 499.03L1014.71 499.014L1014.73 499.004L1014.73 499.002C1014.73 499.002 1014.73 499.002 1014.82 499.18L1014.96 499.446C1015.19 499.89 1015.19 499.891 1015.19 499.892L1015.18 499.895L1015.16 499.906L1015.13 499.922L1015.07 499.949C1015 499.987 1014.88 500.042 1014.73 500.114C1014.43 500.256 1013.99 500.463 1013.39 500.723C1012.19 501.243 1010.4 501.974 1008 502.827C1003.2 504.532 995.963 506.719 986.217 508.661C966.725 512.544 937.189 515.442 896.966 511.527C816.52 503.696 693.343 468.615 522.285 359.681C351.326 250.81 228.298 215.798 148.044 207.987C107.917 204.081 78.4794 206.974 59.0851 210.838C49.3876 212.77 42.2002 214.945 37.4421 216.634C35.063 217.478 33.2912 218.201 32.1165 218.712C31.5292 218.968 31.0912 219.17 30.8012 219.308C30.6562 219.377 30.5482 219.43 30.477 219.465C30.4415 219.482 30.4151 219.496 30.3979 219.504L30.3791 219.514L30.3748 219.516ZM27.8969 226.115C28.1262 226.559 28.1263 226.559 28.127 226.559L28.1313 226.557L28.1502 226.547C28.1673 226.538 28.1937 226.525 28.2293 226.507C28.3004 226.472 28.4084 226.419 28.5534 226.35C28.8434 226.213 29.2814 226.01 29.8688 225.755C31.0434 225.244 32.8152 224.521 35.1943 223.676C39.9524 221.987 47.1399 219.813 56.8373 217.881C76.2316 214.017 105.669 211.123 145.796 215.029C226.051 222.841 349.078 257.853 520.037 366.723C691.095 475.658 814.272 510.739 894.718 518.57C934.941 522.485 964.477 519.587 983.969 515.703C993.715 513.762 1000.95 511.574 1005.75 509.87C1008.15 509.017 1009.95 508.285 1011.14 507.766C1011.74 507.506 1012.19 507.299 1012.49 507.156C1012.6 507.103 1012.69 507.058 1012.76 507.024L1012.83 506.992C1012.86 506.973 1012.89 506.959 1012.91 506.949L1012.93 506.937L1012.94 506.934C1012.94 506.934 1012.94 506.934 1012.94 506.933L1012.94 506.931L1012.94 506.929C1012.94 506.919 1012.92 506.891 1012.88 506.808C1012.85 506.742 1012.79 506.642 1012.71 506.489L1012.58 506.222L1012.52 506.107L1012.49 506.063L1012.49 506.047C1012.48 506.045 1012.48 506.045 1012.48 506.045L1012.48 506.047L1012.46 506.056C1012.44 506.065 1012.42 506.078 1012.38 506.096C1012.31 506.131 1012.2 506.184 1012.06 506.253C1011.77 506.391 1011.33 506.593 1010.74 506.849C1009.57 507.359 1007.8 508.083 1005.42 508.927C1000.66 510.616 993.471 512.791 983.774 514.723C964.38 518.586 934.942 521.48 894.815 517.574C814.56 509.762 691.533 474.751 520.574 365.88C349.516 256.946 226.339 221.864 145.893 214.034C105.67 210.119 76.1341 213.017 56.6419 216.9C46.8961 218.841 39.6622 221.029 34.8598 222.734C32.4586 223.586 30.6653 224.318 29.47 224.838C28.8723 225.098 28.4241 225.305 28.1241 225.447C27.9741 225.519 27.8612 225.574 27.7852 225.611C27.7471 225.63 27.7183 225.645 27.6988 225.655L27.6763 225.666L27.6702 225.669C27.6686 225.67 27.6676 225.671 27.8969 226.115ZM25.8792 233.601C25.8785 233.602 25.8784 233.602 25.6491 233.158C25.5371 232.941 25.48 232.829 25.4512 232.772C25.433 232.737 25.426 232.722 25.4235 232.716C25.4218 232.712 25.4221 232.712 25.4224 232.712L25.4285 232.709L25.451 232.697C25.4706 232.688 25.4993 232.673 25.5374 232.654C25.6134 232.617 25.7263 232.561 25.8763 232.49C26.1763 232.347 26.6245 232.14 27.2222 231.881C28.4175 231.361 30.2108 230.629 32.612 229.777C37.4144 228.072 44.6484 225.884 54.3941 223.943C73.8863 220.059 103.423 217.161 143.646 221.077C224.091 228.907 347.268 263.989 518.326 372.923C689.285 481.793 812.313 516.805 892.567 524.617C932.694 528.523 962.132 525.629 981.526 521.766C991.224 519.834 998.411 517.659 1003.17 515.97C1005.55 515.125 1007.32 514.402 1008.49 513.891C1008.68 513.813 1008.84 513.739 1009 513.67C1009.34 513.517 1009.61 513.391 1009.81 513.296C1009.96 513.227 1010.06 513.174 1010.13 513.139C1010.17 513.121 1010.2 513.108 1010.21 513.099L1010.23 513.09L1010.24 513.087C1010.24 513.087 1010.24 513.087 1010.33 513.265L1010.47 513.531C1010.7 513.976 1010.69 513.976 1010.69 513.977L1010.69 513.98L1010.66 513.991C1010.65 514.001 1010.62 514.016 1010.58 514.035C1010.5 514.072 1010.39 514.128 1010.24 514.199C1010.13 514.252 1009.99 514.314 1009.84 514.385C1009.58 514.504 1009.27 514.646 1008.89 514.808C1007.7 515.328 1005.9 516.06 1003.5 516.912C998.701 518.617 991.467 520.805 981.721 522.746C962.229 526.63 932.693 529.528 892.47 525.612C812.024 517.782 688.848 482.7 517.789 373.766C346.831 264.896 223.803 229.884 143.549 222.072C103.422 218.166 73.9838 221.06 54.5895 224.923C44.8921 226.855 37.7046 229.03 32.9465 230.719C30.5674 231.564 28.7956 232.287 27.621 232.798C27.0337 233.053 26.5956 233.255 26.3056 233.393C26.1606 233.462 26.0526 233.515 25.9815 233.55C25.9459 233.568 25.9195 233.581 25.9024 233.59L25.8835 233.599L25.8792 233.601ZM23.4012 240.2C23.6305 240.645 23.6306 240.645 23.6313 240.644L23.6356 240.642L23.6544 240.633C23.6716 240.624 23.698 240.611 23.7335 240.593C23.8047 240.558 23.9127 240.505 24.0577 240.436C24.3477 240.298 24.7857 240.096 25.373 239.84C26.5477 239.33 28.3195 238.606 30.6986 237.762C35.4567 236.073 42.6441 233.898 52.3416 231.966C71.7359 228.102 101.174 225.209 141.301 229.115C221.555 236.927 344.583 271.938 515.541 380.809C686.6 489.743 809.776 524.825 890.222 532.655C930.445 536.57 959.981 533.672 979.474 529.789C989.219 527.847 996.453 525.66 1001.26 523.955C1003.66 523.103 1005.45 522.371 1006.65 521.851C1007.24 521.591 1007.69 521.384 1007.99 521.242C1008.14 521.17 1008.25 521.115 1008.33 521.077C1008.37 521.059 1008.4 521.044 1008.42 521.034L1008.44 521.023L1008.45 521.02C1008.45 521.019 1008.45 521.018 1008.22 520.574L1008.08 520.308C1007.99 520.13 1007.99 520.13 1007.99 520.13L1007.98 520.132L1007.97 520.142C1007.95 520.151 1007.92 520.164 1007.89 520.182C1007.82 520.217 1007.71 520.27 1007.56 520.339C1007.27 520.476 1006.83 520.679 1006.25 520.934C1005.07 521.445 1003.3 522.168 1000.92 523.013C996.163 524.702 988.976 526.876 979.278 528.808C959.884 532.672 930.446 535.566 890.319 531.66C810.065 523.848 687.037 488.836 516.078 379.965C345.02 271.031 221.843 235.95 141.398 228.119C101.175 224.204 71.6384 227.102 52.1462 230.985C42.4004 232.927 35.1665 235.115 30.364 236.819C27.9629 237.672 26.1696 238.404 24.9742 238.923C24.3766 239.183 23.9284 239.39 23.6284 239.533C23.4784 239.604 23.3655 239.659 23.2894 239.697C23.2514 239.716 23.2226 239.73 23.203 239.74L23.1805 239.752L23.1745 239.755C23.1729 239.756 23.1719 239.756 23.4012 240.2ZM21.3835 247.687C21.3828 247.687 21.3827 247.687 21.1534 247.243C20.9241 246.799 20.9251 246.798 20.9267 246.798L20.9328 246.794L20.9552 246.783C20.9748 246.773 21.0036 246.759 21.0416 246.74C21.1177 246.702 21.2306 246.647 21.3806 246.576C21.6806 246.433 22.1288 246.226 22.7265 245.966C23.9218 245.446 25.7151 244.715 28.1163 243.862C32.9187 242.157 40.1526 239.97 49.8984 238.028C69.3906 234.145 98.9269 231.247 139.15 235.162C219.596 242.993 342.772 278.074 513.831 387.008C684.789 495.879 807.817 530.891 888.071 538.703C928.198 542.608 957.636 539.715 977.03 535.851C986.728 533.919 993.915 531.745 998.673 530.055C1001.05 529.211 1002.82 528.488 1004 527.977C1004.1 527.933 1004.2 527.89 1004.29 527.849C1004.46 527.773 1004.62 527.702 1004.76 527.637C1004.98 527.536 1005.17 527.451 1005.31 527.381C1005.46 527.312 1005.57 527.26 1005.64 527.224L1005.68 527.201L1005.72 527.185L1005.74 527.175L1005.74 527.173C1005.74 527.173 1005.74 527.173 1005.83 527.351L1005.97 527.617C1006.2 528.061 1006.2 528.062 1006.2 528.063L1006.19 528.066L1006.17 528.077C1006.15 528.087 1006.12 528.101 1006.08 528.12C1006.04 528.141 1005.99 528.166 1005.93 528.196C1005.87 528.222 1005.81 528.252 1005.74 528.284C1005.44 528.427 1005 528.634 1004.4 528.894C1003.2 529.414 1001.41 530.145 999.008 530.998C994.205 532.703 986.972 534.89 977.226 536.832C957.734 540.715 928.197 543.613 887.974 539.698C807.528 531.867 684.352 496.786 513.293 387.852C342.335 278.981 219.307 243.969 139.053 236.158C98.9258 232.252 69.4881 235.145 50.0938 239.009C40.3963 240.941 33.2089 243.116 28.4508 244.805C26.0717 245.649 24.2999 246.372 23.1252 246.883C22.5379 247.139 22.0999 247.341 21.8099 247.479C21.6649 247.548 21.5569 247.6 21.4857 247.636C21.4502 247.653 21.4238 247.667 21.4066 247.675L21.3878 247.685L21.3835 247.687ZM18.9054 254.286C19.1347 254.73 19.1349 254.73 19.1356 254.73L19.1398 254.728L19.1587 254.718C19.1759 254.709 19.2022 254.696 19.2378 254.679C19.3089 254.643 19.4169 254.59 19.5619 254.522C19.8519 254.384 20.29 254.181 20.8773 253.926C22.0519 253.415 23.8238 252.692 26.2028 251.847C30.961 250.158 38.1484 247.984 47.8458 246.052C67.2401 242.188 96.6779 239.294 136.805 243.2C217.059 251.012 340.087 286.024 511.046 394.895C682.104 503.829 805.281 538.91 885.726 546.741C925.949 550.656 955.486 547.758 974.978 543.875C984.724 541.933 991.958 539.745 996.76 538.041C999.161 537.188 1000.95 536.457 1002.15 535.937C1002.26 535.888 1002.37 535.84 1002.47 535.795C1002.91 535.601 1003.25 535.443 1003.5 535.327C1003.55 535.301 1003.6 535.277 1003.64 535.256C1003.69 535.233 1003.73 535.213 1003.77 535.195L1003.83 535.163C1003.87 535.144 1003.9 535.13 1003.92 535.12L1003.94 535.108L1003.95 535.105C1003.95 535.105 1003.95 535.104 1003.72 534.66L1003.59 534.393L1003.51 534.246C1003.49 534.216 1003.49 534.216 1003.49 534.216L1003.49 534.218L1003.47 534.228C1003.45 534.236 1003.43 534.249 1003.39 534.267C1003.32 534.302 1003.21 534.355 1003.07 534.424C1002.78 534.562 1002.34 534.764 1001.75 535.02C1000.58 535.53 998.804 536.254 996.425 537.098C991.667 538.787 984.48 540.962 974.782 542.894C955.388 546.758 925.95 549.651 885.823 545.745C805.569 537.934 682.541 502.922 511.583 394.051C340.524 285.117 217.348 250.035 136.902 242.205C96.6789 238.29 67.1427 241.188 47.6505 245.071C37.9047 247.013 30.6708 249.2 25.8683 250.905C23.4671 251.757 21.6739 252.489 20.4785 253.009C19.8808 253.269 19.4326 253.476 19.1326 253.618C18.9827 253.69 18.8697 253.745 18.7937 253.783L18.7503 253.804L18.7073 253.826L18.6848 253.837L18.6787 253.84C18.6771 253.841 18.6761 253.842 18.9054 254.286ZM16.8878 261.773C16.8871 261.773 16.887 261.773 16.6577 261.329C16.4283 260.884 16.4294 260.884 16.431 260.883L16.437 260.88L16.4595 260.869L16.4966 260.85L16.5459 260.825C16.6219 260.788 16.7349 260.732 16.8849 260.661C17.1849 260.519 17.6331 260.312 18.2307 260.052C19.4261 259.532 21.2193 258.8 23.6205 257.948C28.423 256.243 35.6569 254.055 45.4027 252.114C64.8949 248.231 94.4311 245.333 134.654 249.248C215.1 257.078 338.277 292.16 509.335 401.094C680.294 509.964 803.321 544.976 883.576 552.788C923.703 556.694 953.14 553.8 972.535 549.937C982.232 548.005 989.42 545.83 994.178 544.141C996.557 543.296 998.329 542.573 999.503 542.062C1000.09 541.807 1000.53 541.605 1000.82 541.467C1000.87 541.443 1000.92 541.421 1000.96 541.401C1001.03 541.363 1001.1 541.333 1001.14 541.31L1001.17 541.295L1001.22 541.27L1001.24 541.261L1001.24 541.259C1001.25 541.258 1001.25 541.258 1001.34 541.436L1001.48 541.702C1001.7 542.147 1001.7 542.147 1001.7 542.148L1001.7 542.151L1001.67 542.163C1001.65 542.173 1001.62 542.187 1001.59 542.206C1001.55 542.225 1001.5 542.249 1001.44 542.278C1001.38 542.305 1001.32 542.335 1001.25 542.37C1000.95 542.513 1000.5 542.72 999.902 542.98C998.707 543.499 996.913 544.231 994.512 545.083C989.71 546.788 982.476 548.976 972.73 550.917C953.238 554.801 923.702 557.699 883.479 553.783C803.033 545.953 679.856 510.871 508.798 401.937C337.839 293.067 214.811 258.055 134.557 250.243C94.4301 246.337 64.9923 249.231 45.5981 253.095C35.9006 255.026 28.7132 257.201 23.9551 258.89C21.576 259.735 19.8042 260.458 18.6295 260.969C18.0422 261.224 17.6042 261.426 17.3142 261.564C17.1692 261.633 17.0612 261.686 16.99 261.721C16.9544 261.739 16.9281 261.752 16.9109 261.761L16.8921 261.77L16.8878 261.773ZM14.4099 268.372C14.6392 268.816 14.6393 268.816 14.64 268.815L14.6443 268.813L14.6631 268.804C14.6803 268.795 14.7067 268.782 14.7422 268.764C14.8134 268.729 14.9214 268.676 15.0664 268.607C15.3564 268.469 15.7944 268.267 16.3817 268.012C17.5564 267.501 19.3282 266.778 21.7073 265.933C26.4654 264.244 33.6528 262.069 43.3503 260.137C62.7446 256.274 92.1823 253.38 132.309 257.286C212.564 265.098 335.591 300.11 506.55 408.98C677.608 517.914 800.785 552.996 881.231 560.826C921.454 564.741 950.99 561.843 970.482 557.96C980.228 556.019 987.462 553.831 992.264 552.126C994.666 551.274 996.459 550.542 997.654 550.022C998.252 549.762 998.7 549.555 999 549.413C999.15 549.342 999.263 549.286 999.339 549.249C999.377 549.23 999.406 549.215 999.425 549.205L999.448 549.194L999.454 549.191C999.456 549.19 999.457 549.19 999.227 548.745L999.09 548.479C998.998 548.301 998.998 548.301 998.997 548.301L998.993 548.304L998.974 548.313C998.957 548.322 998.93 548.335 998.895 548.353C998.824 548.388 998.716 548.441 998.571 548.51C998.281 548.647 997.843 548.85 997.255 549.105C996.081 549.616 994.309 550.339 991.93 551.184C987.172 552.873 979.984 555.048 970.287 556.979C950.893 560.843 921.455 563.737 881.328 559.831C801.073 552.019 678.046 517.007 507.087 408.137C336.029 299.203 212.852 264.121 132.406 256.291C92.1834 252.375 62.6471 255.273 43.1549 259.157C33.4091 261.098 26.1752 263.286 21.3728 264.991C18.9716 265.843 17.1783 266.575 15.9829 267.095C15.3853 267.354 14.9371 267.561 14.6371 267.704C14.4871 267.775 14.3742 267.83 14.2981 267.868C14.2601 267.887 14.2313 267.901 14.2117 267.911L14.1893 267.923L14.1832 267.926C14.1816 267.927 14.1806 267.927 14.4099 268.372ZM12.3921 275.858C12.3914 275.858 12.3912 275.859 12.1619 275.414C11.9326 274.97 11.9336 274.969 11.9352 274.969L11.9413 274.965L11.9638 274.954C11.9834 274.944 12.0122 274.93 12.0502 274.911C12.1262 274.873 12.2392 274.818 12.3891 274.747C12.6891 274.604 13.1373 274.397 13.735 274.137C14.9304 273.617 16.7236 272.886 19.1248 272.033C23.9273 270.328 31.1612 268.141 40.907 266.199C60.3992 262.316 89.9354 259.418 130.158 263.333C210.604 271.164 333.781 306.245 504.839 415.179C675.798 524.05 798.825 559.062 879.08 566.874C919.207 570.78 948.645 567.886 968.039 564.022C977.736 562.09 984.924 559.916 989.682 558.226C992.061 557.382 993.833 556.659 995.007 556.148C995.595 555.892 996.033 555.69 996.323 555.552C996.468 555.483 996.576 555.431 996.647 555.395C996.683 555.378 996.709 555.364 996.726 555.356L996.745 555.346L996.749 555.344C996.75 555.344 996.75 555.344 996.842 555.522L996.979 555.788C997.209 556.232 997.208 556.233 997.206 556.234L997.2 556.237L997.177 556.248C997.158 556.258 997.129 556.273 997.091 556.291C997.015 556.329 996.902 556.384 996.752 556.456C996.452 556.598 996.004 556.805 995.406 557.065C994.211 557.585 992.418 558.316 990.016 559.169C985.214 560.874 977.98 563.061 968.234 565.003C948.742 568.886 919.206 571.784 878.983 567.869C798.537 560.038 675.36 524.957 504.302 416.023C333.343 307.152 210.316 272.14 130.061 264.329C89.9344 260.423 60.4966 263.316 41.1023 267.18C31.4049 269.112 24.2175 271.287 19.4593 272.976C17.0803 273.82 15.3084 274.543 14.1338 275.054C13.5465 275.31 13.1084 275.512 12.8184 275.65C12.6734 275.719 12.5654 275.771 12.4943 275.807C12.4587 275.824 12.4324 275.838 12.4152 275.846L12.3963 275.856L12.3921 275.858ZM9.91415 282.457C10.1435 282.901 10.1436 282.901 10.1443 282.901L10.1485 282.899L10.1674 282.889C10.1846 282.88 10.2109 282.867 10.2465 282.85C10.3177 282.814 10.4257 282.761 10.5706 282.693C10.8607 282.555 11.2987 282.352 11.886 282.097C13.0607 281.586 14.8325 280.863 17.2116 280.018C21.9697 278.329 29.1571 276.155 38.8546 274.223C58.2488 270.359 87.6866 267.465 127.814 271.371C208.068 279.183 331.096 314.195 502.054 423.066C673.113 532 796.289 567.081 876.735 574.912C916.958 578.827 946.494 575.929 965.987 572.046C975.732 570.104 982.966 567.916 987.769 566.212C990.17 565.359 991.963 564.628 993.158 564.108C993.756 563.848 994.204 563.641 994.504 563.498C994.584 563.461 994.653 563.427 994.711 563.399C994.763 563.374 994.807 563.352 994.843 563.334C994.881 563.315 994.91 563.301 994.93 563.291L994.952 563.279L994.958 563.276C994.96 563.276 994.961 563.275 994.732 562.831L994.594 562.564C994.502 562.386 994.502 562.387 994.501 562.387L994.497 562.389L994.478 562.399C994.461 562.407 994.435 562.42 994.399 562.438C994.36 562.457 994.311 562.482 994.25 562.511C994.199 562.536 994.141 562.564 994.075 562.595C993.785 562.733 993.347 562.935 992.76 563.191C991.585 563.701 989.813 564.425 987.434 565.269C982.676 566.958 975.489 569.133 965.791 571.065C946.397 574.929 916.959 577.822 876.832 573.916C796.578 566.105 673.55 531.093 502.591 422.222C331.533 313.288 208.356 278.206 127.911 270.376C87.6876 266.461 58.1514 269.359 38.6592 273.242C28.9134 275.184 21.6795 277.371 16.877 279.076C14.4758 279.928 12.6826 280.66 11.4872 281.18C10.8895 281.44 10.4413 281.647 10.1414 281.789C9.99138 281.861 9.87844 281.916 9.80241 281.954C9.76439 281.972 9.7356 281.987 9.71601 281.997L9.69353 282.008L9.68746 282.011C9.68586 282.012 9.68484 282.013 9.91415 282.457ZM7.89649 289.944C7.8958 289.944 7.89567 289.944 7.66636 289.5C7.43705 289.055 7.43807 289.055 7.43967 289.054L7.44574 289.051L7.46822 289.04C7.48781 289.03 7.5166 289.015 7.55462 288.996C7.63065 288.959 7.74359 288.903 7.89357 288.832C8.19356 288.69 8.64176 288.483 9.23943 288.223C10.4348 287.703 12.228 286.971 14.6292 286.119C19.4317 284.414 26.6656 282.226 36.4114 280.285C55.9036 276.402 85.4399 273.504 125.663 277.419C206.109 285.249 329.285 320.331 500.344 429.265C671.302 538.136 794.33 573.147 874.584 580.959C914.711 584.865 944.149 581.971 963.543 578.108C973.241 576.176 980.428 574.001 985.186 572.312C987.565 571.467 989.337 570.744 990.512 570.233C991.099 569.978 991.537 569.776 991.827 569.638C991.972 569.569 992.08 569.516 992.151 569.481L992.187 569.463L992.231 569.441L992.249 569.432L992.254 569.43C992.254 569.429 992.254 569.429 992.346 569.607L992.484 569.873C992.601 570.101 992.658 570.213 992.686 570.267C992.712 570.318 992.711 570.319 992.71 570.319L992.704 570.322L992.682 570.334C992.662 570.344 992.633 570.358 992.595 570.377C992.519 570.415 992.407 570.47 992.257 570.541C991.957 570.684 991.508 570.891 990.911 571.151C989.715 571.67 987.922 572.402 985.521 573.254C980.718 574.959 973.484 577.147 963.739 579.088C944.247 582.972 914.71 585.87 874.487 581.954C794.041 574.124 670.865 539.042 499.806 430.108C328.848 321.238 205.82 286.226 125.566 278.414C85.4388 274.508 56.0011 277.402 36.6068 281.266C26.9093 283.197 19.7219 285.372 14.9638 287.061C12.5847 287.906 10.8129 288.629 9.63823 289.14C9.0509 289.395 8.61287 289.597 8.32286 289.735C8.17786 289.804 8.06987 289.857 7.99872 289.892C7.96315 289.91 7.93679 289.923 7.91962 289.932L7.90076 289.941L7.89649 289.944ZM5.41842 296.543C5.64773 296.987 5.64785 296.987 5.64855 296.986L5.65281 296.984L5.67167 296.975C5.68884 296.966 5.7152 296.953 5.75077 296.935C5.82192 296.9 5.92992 296.847 6.07492 296.778C6.36492 296.64 6.80296 296.438 7.39028 296.183C8.56492 295.672 10.3367 294.949 12.7158 294.104C17.4739 292.415 24.6614 290.24 34.3588 288.308C53.7531 284.445 83.1909 281.551 123.318 285.457C203.572 293.269 326.6 328.281 497.559 437.151C668.617 546.085 791.794 581.167 872.239 588.997C912.462 592.913 941.999 590.014 961.491 586.131C971.237 584.19 978.47 582.002 983.273 580.297C985.674 579.445 987.467 578.713 988.663 578.193C989.26 577.933 989.709 577.727 990.009 577.584C990.071 577.554 990.127 577.527 990.177 577.503C990.221 577.482 990.26 577.463 990.294 577.446L990.348 577.42L990.394 577.397L990.434 577.376L990.456 577.365L990.462 577.362C990.463 577.362 990.464 577.361 990.449 577.332C990.428 577.289 990.373 577.182 990.236 576.916L990.098 576.65C990.006 576.472 990.006 576.472 990.006 576.472L990.001 576.475L989.983 576.484C989.965 576.493 989.939 576.506 989.903 576.524C989.832 576.559 989.724 576.612 989.579 576.681C989.289 576.819 988.851 577.021 988.264 577.276C987.089 577.787 985.317 578.51 982.938 579.355C978.18 581.044 970.993 583.219 961.295 585.151C941.901 589.014 912.463 591.908 872.336 588.002C792.082 580.19 669.054 545.178 498.096 436.308C327.037 327.374 203.861 292.292 123.415 284.462C83.1919 280.546 53.6556 283.444 34.1635 287.328C24.4177 289.269 17.1837 291.457 12.3813 293.162C9.9801 294.014 8.18685 294.746 6.99149 295.266C6.39382 295.525 5.94561 295.732 5.64563 295.875C5.49564 295.946 5.3827 296.001 5.30667 296.039L5.23811 296.073L5.22027 296.082L5.19779 296.094L5.19172 296.097C5.19013 296.098 5.1891 296.098 5.41842 296.543ZM3.40077 304.029C3.40007 304.03 3.39995 304.03 3.17063 303.585C2.94132 303.141 2.94234 303.14 2.94394 303.14L2.95001 303.137L2.97249 303.125C2.99208 303.115 3.02087 303.101 3.05889 303.082C3.13492 303.044 3.24786 302.989 3.39785 302.918C3.69783 302.775 4.14603 302.568 4.74371 302.308C5.93907 301.788 7.73232 301.057 10.1335 300.204C14.936 298.5 22.1699 296.312 31.9157 294.37C51.4079 290.487 80.9441 287.589 121.167 291.504C201.613 299.335 324.79 334.416 495.848 443.35C666.807 552.221 789.834 587.233 870.089 595.045C910.216 598.951 939.653 596.057 959.048 592.193C968.745 590.261 975.932 588.087 980.691 586.398C983.07 585.553 984.842 584.83 986.016 584.319C986.357 584.171 986.648 584.04 986.888 583.93C987.062 583.85 987.21 583.781 987.332 583.723L987.436 583.673L987.505 583.64C987.567 583.61 987.617 583.586 987.656 583.566C987.691 583.549 987.718 583.536 987.735 583.527L987.754 583.517L987.758 583.515C987.758 583.515 987.759 583.515 987.851 583.693L987.988 583.959C988.122 584.218 988.177 584.326 988.2 584.371C988.216 584.404 988.215 584.404 988.215 584.405L988.209 584.408L988.186 584.419C988.167 584.429 988.138 584.444 988.1 584.462C988.033 584.496 987.938 584.542 987.814 584.601L987.761 584.627C987.461 584.769 987.013 584.976 986.415 585.236C985.22 585.756 983.426 586.488 981.025 587.34C976.223 589.045 968.989 591.232 959.243 593.174C939.751 597.057 910.215 599.955 869.992 596.04C789.546 588.21 666.369 553.128 495.311 444.194C324.352 335.323 201.324 300.311 121.07 292.5C80.9431 288.594 51.5053 291.487 32.1111 295.351C22.4136 297.283 15.2262 299.458 10.468 301.147C8.08897 301.991 6.31714 302.715 5.1425 303.225C4.55518 303.481 4.11714 303.683 3.82713 303.821C3.68214 303.89 3.57414 303.943 3.50299 303.978L3.46951 303.995L3.42389 304.017L3.40503 304.027L3.40077 304.029ZM1.15282 311.072C1.15213 311.072 1.152 311.072 0.922689 310.628C0.693376 310.184 0.694399 310.183 0.695995 310.182L0.702067 310.179L0.724545 310.168C0.744136 310.158 0.772929 310.144 0.810945 310.125C0.886978 310.087 0.999915 310.032 1.1499 309.961C1.44989 309.818 1.89809 309.611 2.49576 309.351C3.69113 308.831 5.48438 308.1 7.88557 307.247C12.688 305.542 19.9219 303.355 29.6677 301.413C49.1599 297.53 78.6962 294.632 118.919 298.547C199.365 306.378 322.542 341.459 493.6 450.393C664.559 559.264 787.586 594.276 867.841 602.088C907.968 605.993 937.405 603.1 956.8 599.236C966.497 597.304 973.685 595.129 978.443 593.44C980.822 592.596 982.594 591.873 983.768 591.362C984.356 591.106 984.794 590.904 985.084 590.766C985.154 590.733 985.216 590.703 985.269 590.677C985.325 590.65 985.371 590.627 985.408 590.609C985.443 590.592 985.47 590.578 985.487 590.57L985.506 590.56L985.51 590.558C985.51 590.558 985.51 590.558 985.532 590.599L985.603 590.736L985.74 591.002C985.83 591.175 985.884 591.281 985.917 591.346C985.969 591.447 985.968 591.447 985.967 591.447L985.961 591.451L985.938 591.462C985.919 591.472 985.89 591.486 985.852 591.505C985.776 591.543 985.663 591.598 985.513 591.669C985.25 591.794 984.873 591.969 984.382 592.185C984.313 592.215 984.241 592.247 984.167 592.279C982.972 592.799 981.178 593.53 978.777 594.383C973.975 596.088 966.741 598.275 956.995 600.217C937.503 604.1 907.967 606.998 867.744 603.083C787.298 595.252 664.121 560.171 493.063 451.237C322.104 342.366 199.077 307.354 118.822 299.542C78.6951 295.637 49.2574 298.53 29.8631 302.394C20.1657 304.326 12.9782 306.5 8.2201 308.19C5.84102 309.034 4.0692 309.757 2.89456 310.268C2.30723 310.524 1.86919 310.726 1.57919 310.864C1.43419 310.933 1.32619 310.985 1.25505 311.021C1.21948 311.038 1.19311 311.052 1.17595 311.06L1.15709 311.07L1.15282 311.072Z" fill="url(#paint0_radial_3064_3378)"/>
<defs>
<radialGradient id="paint0_radial_3064_3378" cx="0" cy="0" r="1" gradientUnits="userSpaceOnUse" gradientTransform="translate(500.474 249.5) rotate(50.2785) scale(444.63 466.29)">
<stop stop-color="#10B981" stop-opacity="0.46"/>
<stop offset="0.406987" stop-color="#D8E3D6" stop-opacity="0.28"/>
<stop offset="1" stop-color="#6C9820" stop-opacity="0.05"/>
</radialGradient>
</defs>
</svg>
