<svg width="48" height="48" viewBox="0 0 48 48" fill="none" xmlns="http://www.w3.org/2000/svg">
<path d="M0 8C0 3.58172 3.58172 0 8 0H40C44.4183 0 48 3.58172 48 8V40C48 44.4183 44.4183 48 40 48H8C3.58172 48 0 44.4183 0 40V8Z" fill="white"/>
<path d="M13.6761 15.5618C11.7952 17.8602 10.6667 20.7983 10.6667 24C10.6667 27.2017 11.7952 30.1399 13.6761 32.4384L18.9201 27.1944C18.3372 26.2694 18 25.1741 18 24C18 22.826 18.3372 21.7307 18.9201 20.8058L13.6761 15.5618Z" fill="#022C22"/>
<path d="M15.5617 13.6761L20.8057 18.9201C21.7306 18.3372 22.8259 18 24 18C25.1741 18 26.2694 18.3372 27.1944 18.9201L32.4384 13.6761C30.1399 11.7952 27.2017 10.6667 24 10.6667C20.7983 10.6667 17.8602 11.7952 15.5617 13.6761Z" fill="#022C22"/>
<path d="M34.324 15.5618L29.08 20.8058C29.6628 21.7307 30 22.826 30 24C30 25.1741 29.6628 26.2694 29.0799 27.1944L34.3239 32.4384C36.2049 30.1399 37.3334 27.2017 37.3334 24C37.3334 20.7984 36.2049 17.8603 34.324 15.5618Z" fill="#022C22"/>
<path d="M32.4383 34.324L27.1943 29.08C26.2693 29.6628 25.1741 30 24 30C22.826 30 21.7307 29.6628 20.8058 29.08L15.5618 34.324C17.8603 36.2049 20.7984 37.3334 24 37.3334C27.2017 37.3334 30.1398 36.2049 32.4383 34.324Z" fill="#022C22"/>
</svg>
